<?xml version="1.0" encoding="UTF-8"?>
<svg version="1.1" xmlns="http://www.w3.org/2000/svg" width="646" height="647">
<path d="M0 0 C1.05641693 -0.00979385 2.11283386 -0.01958771 3.20126343 -0.02967834 C26.35990811 -0.20009818 48.9253457 -0.10609517 71.73828125 4.23828125 C72.88361328 4.45258789 74.02894531 4.66689453 75.20898438 4.88769531 C105.85107686 10.79098122 135.30149285 20.73787228 162.92773438 35.28808594 C164.73715562 36.23769051 166.55669243 37.16506535 168.37890625 38.08984375 C204.37680605 56.56150304 238.74405347 84.3298427 263.73828125 116.23828125 C264.70225788 117.42624267 265.66854744 118.61232969 266.63671875 119.796875 C301.44409915 162.50674014 324.34191822 213.87956255 333.98828125 268.05078125 C334.21499512 269.3183728 334.21499512 269.3183728 334.44628906 270.61157227 C337.38407334 288.15704124 338.11188209 305.53350666 338.05078125 323.30078125 C338.0486261 324.42856995 338.04647095 325.55635864 338.04425049 326.71832275 C337.99406914 343.07773395 337.67624805 359.10190114 334.73828125 375.23828125 C334.53960449 376.36637207 334.34092773 377.49446289 334.13623047 378.65673828 C326.33099473 421.96264173 310.87457205 463.33253864 286.73828125 500.23828125 C286.22120605 501.03105469 285.70413086 501.82382812 285.17138672 502.640625 C278.74112185 512.42807955 272.03231478 521.6944653 264.26220703 530.45947266 C262.30427239 532.74487987 260.44011403 535.10053379 258.55859375 537.44921875 C253.81581469 543.26453498 248.68956349 548.58399562 243.36328125 553.86328125 C242.49445312 554.73984375 241.625625 555.61640625 240.73046875 556.51953125 C234.71050168 562.52168776 228.37113803 567.92984666 221.73828125 573.23828125 C219.92320095 574.7977831 218.11011799 576.35961937 216.30078125 577.92578125 C197.6438058 593.43318997 176.66561499 605.87507077 154.78564453 616.26416016 C153.38457401 616.93077969 151.9872573 617.60533074 150.59326172 618.28662109 C113.62385709 636.29859987 70.64301042 647.1606274 29.4765625 647.4765625 C28.42014557 647.48635635 27.36372864 647.49615021 26.27529907 647.50624084 C3.11665439 647.67666068 -19.4487832 647.58265767 -42.26171875 643.23828125 C-43.40705078 643.02397461 -44.55238281 642.80966797 -45.73242188 642.58886719 C-76.37451436 636.68558128 -105.82493035 626.73869022 -133.45117188 612.18847656 C-135.26059312 611.23887199 -137.08012993 610.31149715 -138.90234375 609.38671875 C-174.90024355 590.91505946 -209.26749097 563.1467198 -234.26171875 531.23828125 C-235.22569538 530.05031983 -236.19198494 528.86423281 -237.16015625 527.6796875 C-271.96753665 484.96982236 -294.86535572 433.59699995 -304.51171875 379.42578125 C-304.66286133 378.58072021 -304.81400391 377.73565918 -304.96972656 376.86499023 C-307.90751084 359.31952126 -308.63531959 341.94305584 -308.57421875 324.17578125 C-308.5720636 323.04799255 -308.56990845 321.92020386 -308.56768799 320.75823975 C-308.51750664 304.39882855 -308.19968555 288.37466136 -305.26171875 272.23828125 C-305.06304199 271.11019043 -304.86436523 269.98209961 -304.65966797 268.81982422 C-296.85443223 225.51392077 -281.39800955 184.14402386 -257.26171875 147.23828125 C-256.74464355 146.44550781 -256.22756836 145.65273437 -255.69482422 144.8359375 C-249.26455935 135.04848295 -242.55575228 125.7820972 -234.78564453 117.01708984 C-232.82770989 114.73168263 -230.96355153 112.37602871 -229.08203125 110.02734375 C-224.33925219 104.21202752 -219.21300099 98.89256688 -213.88671875 93.61328125 C-213.01789063 92.73671875 -212.1490625 91.86015625 -211.25390625 90.95703125 C-205.23393918 84.95487474 -198.89457553 79.54671584 -192.26171875 74.23828125 C-190.44663845 72.6787794 -188.63355549 71.11694313 -186.82421875 69.55078125 C-168.1672433 54.04337253 -147.18905249 41.60149173 -125.30908203 31.21240234 C-123.90801151 30.54578281 -122.5106948 29.87123176 -121.11669922 29.18994141 C-84.14729459 11.17796263 -41.16644792 0.3159351 0 0 Z " fill="#00E0D3" transform="translate(308.26171875,-0.23828125)"/>
<path d="M0 0 C5.11964472 2.39109584 8.27983362 5.40754983 10.7221384 10.58002281 C11.73486273 13.57111977 11.8898597 15.90991137 11.89500427 19.06338501 C11.90183228 20.21866196 11.90866028 21.3739389 11.91569519 22.56422424 C11.91314224 23.82258591 11.91058929 25.08094757 11.90795898 26.37744141 C11.91234855 27.72305109 11.91765154 29.06865806 11.92379761 30.41426086 C11.93527801 33.30620611 11.94075555 36.19807827 11.941679 39.09004593 C11.94362184 43.66160991 11.96168498 48.23302279 11.98243713 52.80453491 C12.03158896 64.15588231 12.06254019 75.50727053 12.08374023 86.85870361 C12.10025107 95.68748193 12.12301743 104.51613023 12.16676098 113.34482133 C12.18856823 117.89095902 12.19659246 122.43684987 12.19436824 126.98303628 C12.19603207 129.80756291 12.21006172 132.63192751 12.22758102 135.4563961 C12.23587083 137.39402479 12.22923911 139.3316992 12.22221375 141.26933289 C12.23186157 142.41897018 12.2415094 143.56860748 12.25144958 144.75308228 C12.25346091 145.75410791 12.25547224 146.75513355 12.25754452 147.7864933 C12.45259464 150.30979507 12.45259464 150.30979507 13.93423557 152.13847923 C15.79773899 153.63607001 15.79773899 153.63607001 19.26171875 153.09375 C20.93234375 152.6915625 20.93234375 152.6915625 22.63671875 152.28125 C23.93035594 149.69397562 23.76141319 147.83639087 23.7612915 144.93821716 C23.76385452 143.80414932 23.76641754 142.67008148 23.76905823 141.50164795 C23.76695847 140.25127747 23.7648587 139.00090698 23.76269531 137.71264648 C23.7655631 135.69809267 23.76843879 133.68353885 23.77161074 131.66898549 C23.77429455 129.49873214 23.77473576 127.32848663 23.77481842 125.15823174 C23.77595835 120.63149757 23.78879534 116.10484505 23.80438232 111.57814026 C23.80695518 110.81409502 23.80952803 110.05004978 23.81217885 109.26285166 C23.81744577 107.70011832 23.82273125 106.13738505 23.82803488 104.57465184 C23.8631271 94.03502577 23.88970175 83.49549987 23.88720703 72.95581055 C23.88561524 65.84881414 23.90173187 58.74209522 23.93791366 51.63518769 C23.95632939 47.87609437 23.96575582 44.11746401 23.95343781 40.35833549 C23.94194481 36.81632142 23.95383401 33.27513337 23.98307228 29.73322868 C23.99280821 27.82534869 23.97800165 25.91739194 23.96226501 24.009552 C24.06517223 15.43186684 25.77467354 9.43980539 31.671875 3.08984375 C37.86861937 -1.10101805 43.25849528 -1.77278192 50.63671875 -0.71875 C56.76095637 1.39689572 60.33196131 5.21841888 63.75401306 10.62870789 C66.53877826 16.38865136 66.18479711 22.25512039 66.13500977 28.53442383 C66.14328796 30.50404587 66.14328796 30.50404587 66.1517334 32.51345825 C66.16363063 35.35470817 66.16323693 38.1955882 66.15313911 41.03684425 C66.1375181 45.52890342 66.15129541 50.02058578 66.16917419 54.51261902 C66.19991546 63.22956213 66.20149705 71.94638854 66.19952393 80.66337585 C66.19812838 91.77726817 66.20842667 102.89107188 66.24810165 114.00489825 C66.26304732 118.47163444 66.26275769 122.93803482 66.25062382 127.40477622 C66.24705322 129.51075503 66.25021867 131.61659369 66.25640869 133.7225647 C66.26382718 136.29156242 66.26043583 138.86062211 66.24443054 141.42958069 C66.25118805 142.5580542 66.25794556 143.68652771 66.26490784 144.84919739 C66.26432153 145.83157788 66.26373522 146.81395838 66.26313114 147.82610798 C66.44841187 150.3185585 66.44841187 150.3185585 67.96855068 152.09731579 C70.55091533 153.93007468 72.5717252 153.67252577 75.63671875 153.28125 C77.74782107 150.11459652 77.88587052 149.37583046 77.88154602 145.7603302 C77.8854837 144.83379639 77.88942139 143.90726257 77.89347839 142.95265198 C77.88778336 141.93807419 77.88208832 140.9234964 77.8762207 139.87817383 C77.87823486 138.80793976 77.88024902 137.73770569 77.88232422 136.63504028 C77.88587378 134.30730765 77.88509766 131.97956538 77.88054848 129.65183449 C77.87496526 125.96534209 77.88409876 122.27916551 77.89775085 118.59269714 C77.93491574 108.10988003 77.95342932 97.6271682 77.94213867 87.14428711 C77.93628104 80.7345657 77.95458439 74.32528642 77.98802757 67.91565514 C77.99597525 65.47449669 77.99471327 63.03328999 77.98400307 60.59214211 C77.96964543 57.17137429 77.9859819 53.75199065 78.0090332 50.33129883 C77.99726547 49.32684219 77.98549774 48.32238556 77.97337341 47.28749084 C78.07020148 39.94067103 79.93583645 34.92124453 85.22093678 29.72309589 C90.45672572 25.21860816 93.89630179 24.93121863 100.65625 25.00390625 C106.056039 25.50637679 108.92970002 28.36322767 112.38671875 32.21875 C116.02668794 37.17315251 116.88683424 40.83262642 116.87722778 46.95674133 C116.87893663 47.61438183 116.88064548 48.27202234 116.88240612 48.94959134 C116.88569094 51.14529866 116.87471421 53.34069795 116.86376953 55.53637695 C116.8632052 57.11344902 116.86352241 58.69052162 116.86465454 60.26759338 C116.86522819 64.54406653 116.85347183 68.82042741 116.83950663 73.09687448 C116.82700139 77.56784766 116.82582893 82.03882343 116.82345581 86.5098114 C116.81724044 94.97408588 116.80082883 103.43830868 116.78075683 111.90256041 C116.75839963 121.53972879 116.74740485 131.17689965 116.73736596 140.81408751 C116.71646267 160.63650385 116.68128556 180.45887367 116.63671875 200.28125 C115.9912912 200.28711624 115.34586365 200.29298248 114.68087769 200.29902649 C107.89846884 200.36348928 101.11651157 200.44803799 94.33447266 200.54370117 C91.81109613 200.5767381 89.28764948 200.60483441 86.76416016 200.62768555 C62.25690331 200.85559237 42.23459778 202.43989486 23.63671875 220.28125 C20.09385426 224.01207943 20.09385426 224.01207943 19.76171875 229.03125 C20.05046875 230.10375 20.33921875 231.17625 20.63671875 232.28125 C23.69899721 233.81238923 25.20870069 233.85258634 28.63671875 233.28125 C30.71380362 231.49050287 32.51049172 229.51866592 34.37890625 227.51171875 C43.67103672 218.33212273 56.78244168 213.11917863 69.76879883 213.18701172 C70.98388626 213.18966034 72.19897369 213.19230896 73.45088196 213.19503784 C74.75615341 213.20028473 76.06142487 213.20553162 77.40625 213.2109375 C80.17905734 213.2052281 82.9518249 213.1921102 85.72460938 213.1796875 C90.08952023 213.16142652 94.45372374 213.15268559 98.81860352 213.18164062 C102.35865026 213.20427802 105.89717097 213.19263052 109.43710899 213.15863419 C111.42667004 213.1486487 113.41630809 213.17450931 115.40571594 213.20114136 C121.42372714 213.12121037 125.60770581 212.99923557 130.27880859 208.96166992 C131.42570679 207.76062074 132.54950317 206.53658139 133.63671875 205.28125 C134.3635083 204.59603271 135.09029785 203.91081543 135.83911133 203.20483398 C136.39751709 202.65126221 136.95592285 202.09769043 137.53125 201.52734375 C148.37717734 190.95293982 157.43166225 182.99740638 173.22998047 182.8918457 C182.67831256 183.07309596 190.94503898 186.58957023 197.63671875 193.28125 C199.20433472 196.41648194 198.9705979 198.81906837 198.63671875 202.28125 C196.65234375 205.1328125 196.65234375 205.1328125 193.88671875 207.90625 C192.86938798 208.95143014 191.85247515 209.99701721 190.8359375 211.04296875 C190.30661621 211.57583496 189.77729492 212.10870117 189.23193359 212.65771484 C186.65311857 215.28231232 184.18233655 218.0040164 181.69921875 220.71875 C180.69072669 221.81177262 179.68160854 222.9042179 178.671875 223.99609375 C175.659074 227.25681409 172.6477679 230.51891199 169.63671875 233.78125 C168.63672551 234.86458957 167.63672551 235.94792291 166.63671875 237.03125 C165.89421875 237.835625 165.89421875 237.835625 165.13671875 238.65625 C160.63671875 243.53125 160.63671875 243.53125 159.13647461 245.15649414 C158.13726137 246.23898871 157.13807513 247.32150821 156.13891602 248.40405273 C153.6271004 251.12542508 151.11480542 253.84635195 148.6015625 256.56640625 C143.77041098 261.79600325 138.94526115 267.03085089 134.13671875 272.28125 C133.23049783 273.26955792 132.32424768 274.25783903 131.41796875 275.24609375 C129.9996032 276.79289794 128.58243869 278.34074513 127.16796875 279.89111328 C123.68240418 283.71139189 120.17054484 287.50559214 116.63671875 291.28125 C115.75371094 292.23128906 114.87070312 293.18132812 113.9609375 294.16015625 C91.63675402 317.41037994 60.92959736 331.45322747 28.63671875 332.28125 C27.88245605 332.30171387 27.12819336 332.32217773 26.35107422 332.34326172 C-0.01031237 332.96637713 -22.55171206 327.37007404 -42.36328125 309.28125 C-43.09160156 308.62253906 -43.81992188 307.96382813 -44.5703125 307.28515625 C-60.08141245 292.54516261 -69.75289866 270.72482215 -70.50029564 249.36563969 C-70.51088204 247.91526069 -70.51620666 246.46483686 -70.5171814 245.01441956 C-70.52375478 243.80722516 -70.52375478 243.80722516 -70.53046095 242.575643 C-70.54375748 239.89360649 -70.55000693 237.21160275 -70.55615234 234.52954102 C-70.56406015 232.60062515 -70.57232951 230.67171074 -70.58093262 228.74279785 C-70.60706074 222.42359818 -70.62244486 216.10439216 -70.63671875 209.78515625 C-70.64208105 207.60635817 -70.64745857 205.42756013 -70.6528511 203.24876213 C-70.67446077 194.18717935 -70.69319861 185.1255983 -70.7044735 176.06399632 C-70.72072524 163.09018045 -70.75395486 150.11666338 -70.81087434 137.14296013 C-70.8495692 128.0115593 -70.8691053 118.88023844 -70.87439406 109.74875778 C-70.8780463 104.2979459 -70.89005582 98.84745341 -70.9224968 93.39673042 C-70.95257147 88.27071986 -70.95889128 83.14522213 -70.94711304 78.01914215 C-70.9468923 76.14062272 -70.95519769 74.26207948 -70.97276688 72.3836422 C-70.99549329 69.81350157 -70.98714867 67.24521566 -70.97128296 64.67506409 C-70.99210609 63.56740522 -70.99210609 63.56740522 -71.01334989 62.43736941 C-70.92579414 56.65792527 -68.8797592 52.81518111 -65.36328125 48.28125 C-61.47745903 44.62400556 -57.1326288 44.78137611 -52.0234375 44.92578125 C-47.30970868 45.55566278 -44.65203638 47.85917538 -41.55078125 51.28125 C-38.79422845 55.92386524 -39.2120003 60.97488635 -39.20556641 66.22485352 C-39.19794533 67.57912445 -39.19794533 67.57912445 -39.19017029 68.96075439 C-39.17947928 70.91905819 -39.17085413 72.87737411 -39.16405106 74.83569527 C-39.15225768 77.93275972 -39.13280579 81.02968501 -39.1109314 84.12669373 C-39.04931415 92.93133953 -38.99518401 101.73596925 -38.96191406 110.54077148 C-38.94101287 115.92713059 -38.90575213 121.31323296 -38.86115646 126.69944572 C-38.84696608 128.75396652 -38.83826721 130.80853269 -38.83510208 132.86310005 C-38.83021373 135.73135552 -38.8071117 138.59892424 -38.77978516 141.46704102 C-38.78279129 142.31958969 -38.78579742 143.17213837 -38.78889465 144.05052185 C-38.84935686 148.30886105 -38.84935686 148.30886105 -37.03018761 152.00324917 C-34.49526837 153.946747 -32.45364531 153.61001213 -29.36328125 153.28125 C-26.74313309 150.66110184 -27.11295266 149.54620611 -27.11172485 145.89352417 C-27.10634201 144.74959702 -27.10095917 143.60566986 -27.09541321 142.42707825 C-27.0995372 141.16578598 -27.10366119 139.90449371 -27.10791016 138.60498047 C-27.10516112 137.2679269 -27.10148175 135.93087497 -27.09693909 134.59382629 C-27.08881506 131.71001863 -27.0866617 128.82628856 -27.08888626 125.94247055 C-27.09171629 121.37817794 -27.07737722 116.81404055 -27.05990601 112.24978638 C-27.01285507 99.26908726 -26.98895116 86.28839775 -26.98242188 73.30761719 C-26.97866525 66.14170563 -26.96058358 58.97596882 -26.92732751 51.81013215 C-26.90715367 47.27785517 -26.90472398 42.74603018 -26.91560769 38.21372676 C-26.91822468 35.3845494 -26.90416213 32.55563211 -26.88552666 29.72652245 C-26.87771191 27.80055384 -26.88960607 25.87453638 -26.90220642 23.94859314 C-26.8268415 16.01145162 -25.99511738 10.31917751 -20.51171875 4.22265625 C-19.92648437 3.76761719 -19.34125 3.31257812 -18.73828125 2.84375 C-18.14789063 2.37066406 -17.5575 1.89757812 -16.94921875 1.41015625 C-12.14225456 -2.01154979 -5.50000473 -1.67272871 0 0 Z " fill="#FDFDFD" transform="translate(293.36328125,159.71875)"/>
<path d="M0 0 C1.05641693 -0.00979385 2.11283386 -0.01958771 3.20126343 -0.02967834 C26.35990811 -0.20009818 48.9253457 -0.10609517 71.73828125 4.23828125 C72.88361328 4.45258789 74.02894531 4.66689453 75.20898438 4.88769531 C105.85107686 10.79098122 135.30149285 20.73787228 162.92773438 35.28808594 C164.73715562 36.23769051 166.55669243 37.16506535 168.37890625 38.08984375 C204.37680605 56.56150304 238.74405347 84.3298427 263.73828125 116.23828125 C264.70225788 117.42624267 265.66854744 118.61232969 266.63671875 119.796875 C301.44409915 162.50674014 324.34191822 213.87956255 333.98828125 268.05078125 C334.21499512 269.3183728 334.21499512 269.3183728 334.44628906 270.61157227 C337.38407334 288.15704124 338.11188209 305.53350666 338.05078125 323.30078125 C338.0486261 324.42856995 338.04647095 325.55635864 338.04425049 326.71832275 C337.99406914 343.07773395 337.67624805 359.10190114 334.73828125 375.23828125 C334.53960449 376.36637207 334.34092773 377.49446289 334.13623047 378.65673828 C326.33099473 421.96264173 310.87457205 463.33253864 286.73828125 500.23828125 C286.22120605 501.03105469 285.70413086 501.82382812 285.17138672 502.640625 C278.74112185 512.42807955 272.03231478 521.6944653 264.26220703 530.45947266 C262.30427239 532.74487987 260.44011403 535.10053379 258.55859375 537.44921875 C253.81581469 543.26453498 248.68956349 548.58399562 243.36328125 553.86328125 C242.49445312 554.73984375 241.625625 555.61640625 240.73046875 556.51953125 C234.71050168 562.52168776 228.37113803 567.92984666 221.73828125 573.23828125 C219.92320095 574.7977831 218.11011799 576.35961937 216.30078125 577.92578125 C197.6438058 593.43318997 176.66561499 605.87507077 154.78564453 616.26416016 C153.38457401 616.93077969 151.9872573 617.60533074 150.59326172 618.28662109 C113.62385709 636.29859987 70.64301042 647.1606274 29.4765625 647.4765625 C28.42014557 647.48635635 27.36372864 647.49615021 26.27529907 647.50624084 C3.11665439 647.67666068 -19.4487832 647.58265767 -42.26171875 643.23828125 C-43.40705078 643.02397461 -44.55238281 642.80966797 -45.73242188 642.58886719 C-76.37451436 636.68558128 -105.82493035 626.73869022 -133.45117188 612.18847656 C-135.26059312 611.23887199 -137.08012993 610.31149715 -138.90234375 609.38671875 C-174.90024355 590.91505946 -209.26749097 563.1467198 -234.26171875 531.23828125 C-235.22569538 530.05031983 -236.19198494 528.86423281 -237.16015625 527.6796875 C-271.96753665 484.96982236 -294.86535572 433.59699995 -304.51171875 379.42578125 C-304.66286133 378.58072021 -304.81400391 377.73565918 -304.96972656 376.86499023 C-307.90751084 359.31952126 -308.63531959 341.94305584 -308.57421875 324.17578125 C-308.5720636 323.04799255 -308.56990845 321.92020386 -308.56768799 320.75823975 C-308.51750664 304.39882855 -308.19968555 288.37466136 -305.26171875 272.23828125 C-305.06304199 271.11019043 -304.86436523 269.98209961 -304.65966797 268.81982422 C-296.85443223 225.51392077 -281.39800955 184.14402386 -257.26171875 147.23828125 C-256.74464355 146.44550781 -256.22756836 145.65273437 -255.69482422 144.8359375 C-249.26455935 135.04848295 -242.55575228 125.7820972 -234.78564453 117.01708984 C-232.82770989 114.73168263 -230.96355153 112.37602871 -229.08203125 110.02734375 C-224.33925219 104.21202752 -219.21300099 98.89256688 -213.88671875 93.61328125 C-213.01789063 92.73671875 -212.1490625 91.86015625 -211.25390625 90.95703125 C-205.23393918 84.95487474 -198.89457553 79.54671584 -192.26171875 74.23828125 C-190.44663845 72.6787794 -188.63355549 71.11694313 -186.82421875 69.55078125 C-168.1672433 54.04337253 -147.18905249 41.60149173 -125.30908203 31.21240234 C-123.90801151 30.54578281 -122.5106948 29.87123176 -121.11669922 29.18994141 C-84.14729459 11.17796263 -41.16644792 0.3159351 0 0 Z M-176.26171875 88.23828125 C-177.79699219 89.48738281 -177.79699219 89.48738281 -179.36328125 90.76171875 C-191.79533374 101.01127647 -203.81080899 111.95894344 -214.26171875 124.23828125 C-215.09574219 125.18445313 -215.92976563 126.130625 -216.7890625 127.10546875 C-233.80110179 146.55309797 -248.3664584 168.68664265 -259.26806641 192.11962891 C-260.36929743 194.46765909 -261.50941618 196.79508115 -262.6484375 199.125 C-295.81561642 268.14651355 -298.45521294 351.68686599 -273.88671875 423.80078125 C-269.95082287 434.90690687 -265.44827418 445.66139186 -260.26171875 456.23828125 C-259.78750488 457.21120117 -259.31329102 458.18412109 -258.82470703 459.18652344 C-248.96345051 479.23679957 -237.37224255 497.89791353 -223.26171875 515.23828125 C-222.84921875 515.74697754 -222.43671875 516.25567383 -222.01171875 516.77978516 C-206.91565232 535.29893067 -190.29952781 551.80307595 -171.26171875 566.23828125 C-170.67551758 566.68671387 -170.08931641 567.13514648 -169.48535156 567.59716797 C-144.35070975 586.76215982 -116.88433916 601.28025362 -87.26171875 612.23828125 C-86.19268311 612.63950195 -86.19268311 612.63950195 -85.10205078 613.04882812 C-54.44246325 624.43284571 -20.52695389 629.71760474 12.11328125 629.48828125 C12.92242981 629.48484711 13.73157837 629.48141296 14.56524658 629.47787476 C26.73736792 629.41751589 38.68320375 629.02604688 50.73828125 627.23828125 C51.8895752 627.0769873 53.04086914 626.91569336 54.22705078 626.74951172 C69.86887955 624.53475702 85.217188 621.9212712 100.28320312 617.03417969 C102.80797998 616.215686 105.34226678 615.43321581 107.87890625 614.65234375 C143.19984147 603.56129265 176.10180306 585.70374012 204.73828125 562.23828125 C205.24794434 561.82336426 205.75760742 561.40844727 206.28271484 560.98095703 C267.21749948 511.18298062 308.62468032 438.05716316 316.65527344 359.37817383 C322.78260157 294.83347894 311.66787159 226.79610135 276.73828125 171.23828125 C275.83890642 169.75577657 274.94054719 168.27265549 274.04296875 166.7890625 C258.41407548 141.22701243 238.58289681 116.72858695 215.73828125 97.23828125 C214.79082031 96.40296875 213.84335937 95.56765625 212.8671875 94.70703125 C180.99193067 66.83202535 141.54444656 44.73134061 100.73828125 33.23828125 C99.4867627 32.88540039 99.4867627 32.88540039 98.20996094 32.52539062 C82.55459492 28.19949375 66.83772761 25.31831308 50.73828125 23.23828125 C49.85140625 23.1196875 48.96453125 23.00109375 48.05078125 22.87890625 C-31.20843634 12.60456323 -114.67116732 37.78465145 -176.26171875 88.23828125 Z " fill="#FDFDFD" transform="translate(308.26171875,-0.23828125)"/>
<path d="M0 0 C1.37647705 0.1841748 1.37647705 0.1841748 2.78076172 0.37207031 C8.21347206 1.11554773 13.61163645 1.98396586 19 3 C19.99507568 3.1863501 19.99507568 3.1863501 21.01025391 3.37646484 C82.96281186 15.44276162 144.11189758 51.95836216 185 100 C185.83402344 100.94617188 186.66804687 101.89234375 187.52734375 102.8671875 C204.53938304 122.31481672 219.10473965 144.4483614 230.00634766 167.88134766 C231.10757868 170.22937784 232.24769743 172.5567999 233.38671875 174.88671875 C240.39599551 189.47315348 245.50853773 204.46730355 250 220 C250.44883545 221.53599854 250.44883545 221.53599854 250.90673828 223.10302734 C270.26995319 291.01378394 261.88706126 369.0123322 231 432 C230.52578613 432.97291992 230.05157227 433.94583984 229.56298828 434.94824219 C219.70173176 454.99851832 208.1105238 473.65963228 194 491 C193.38125 491.76304443 193.38125 491.76304443 192.75 492.54150391 C177.65393357 511.06064942 161.03780906 527.5647947 142 542 C141.41379883 542.44843262 140.82759766 542.89686523 140.22363281 543.35888672 C115.75147454 562.01873942 88.99976465 576.67065239 60 587 C59.18950195 587.28955566 58.37900391 587.57911133 57.54394531 587.87744141 C53.09205686 589.44994837 48.6200029 590.93685405 44.11230469 592.34130859 C42.73293067 592.77144626 41.35582865 593.20895834 39.98144531 593.65478516 C24.70442173 598.57721628 8.84200006 600.73873163 -7 603 C-7.90943359 603.13567383 -8.81886719 603.27134766 -9.75585938 603.41113281 C-35.5840926 607.1658514 -63.33917841 606.31115262 -89 602 C-90.56935303 601.74259033 -90.56935303 601.74259033 -92.17041016 601.47998047 C-146.94481671 592.286556 -199.31814447 569.0572993 -241 532 C-242.3541479 530.83331155 -243.70831235 529.66664231 -245.0625 528.5 C-246.37773467 527.33641712 -247.68995301 526.16942048 -249 525 C-249.90105469 524.20335937 -250.80210937 523.40671875 -251.73046875 522.5859375 C-307.46698138 472.81138177 -342.12910754 397.69788421 -346.86004639 323.54193115 C-350.2228049 262.46526136 -338.98771137 199.46913337 -306 147 C-305.10062517 145.51749532 -304.20226594 144.03437424 -303.3046875 142.55078125 C-287.67579423 116.98873118 -267.84461556 92.4903057 -245 73 C-244.05253906 72.1646875 -243.10507813 71.329375 -242.12890625 70.46875 C-175.85093089 12.51635908 -86.69212353 -11.81601938 0 0 Z M-91 14 C-91.68190399 14.11124207 -92.36380798 14.22248413 -93.06637573 14.33709717 C-119.83668863 18.74365826 -145.68314643 26.95937286 -170 39 C-170.82161621 39.39735352 -171.64323242 39.79470703 -172.48974609 40.20410156 C-196.56779538 51.90928444 -218.78971973 67.19683152 -238.31640625 85.5 C-240.60958458 87.63629423 -242.93663261 89.70702766 -245.3125 91.75 C-251.75038468 97.34989556 -257.51200031 103.47481872 -263 110 C-263.45648926 110.54269531 -263.91297852 111.08539063 -264.38330078 111.64453125 C-277.07002911 126.80206788 -288.18208787 142.51277801 -297.77880859 159.80419922 C-298.87525582 161.77569989 -299.99124309 163.73441286 -301.11328125 165.69140625 C-334.38171259 224.70277705 -343.27760071 300.51447549 -327 366 C-326.68506592 367.27423828 -326.68506592 367.27423828 -326.36376953 368.57421875 C-315.86466487 410.35714798 -297.82983062 448.27850045 -271 482 C-270.29488281 482.89976562 -269.58976562 483.79953125 -268.86328125 484.7265625 C-254.36533746 502.89588946 -237.6211524 519.10887656 -219 533 C-218.46117187 533.40637695 -217.92234375 533.81275391 -217.3671875 534.23144531 C-200.10284101 547.19013051 -181.51609319 557.83165977 -162 567 C-161.34483398 567.31018066 -160.68966797 567.62036133 -160.01464844 567.93994141 C-137.84032024 578.31850439 -113.69317298 584.06211406 -89.6875 588.3125 C-88.78789551 588.47194092 -87.88829102 588.63138184 -86.96142578 588.7956543 C-72.9344401 591.1499336 -58.93533005 591.24036621 -44.75 591.25 C-43.20882004 591.25151062 -43.20882004 591.25151062 -41.63650513 591.25305176 C-26.51410752 591.24302061 -11.9107651 590.69888629 3 588 C4.74845799 587.71726227 6.49715966 587.43602764 8.24609375 587.15625 C21.81532421 584.88003172 34.89012593 581.124759 48 577 C49.25731934 576.61618164 49.25731934 576.61618164 50.54003906 576.22460938 C87.75417112 564.7717827 122.03812951 543.21464691 150.6640625 517.1171875 C152.76918748 515.20919797 154.90613634 513.34952931 157.0625 511.5 C207.6956616 467.29806659 238.69414695 397.93364808 246 332 C246.14139404 330.81410278 246.14139404 330.81410278 246.28564453 329.60424805 C247.24699966 320.61067627 247.2426153 311.59735766 247.25 302.5625 C247.25100708 301.70572662 247.25201416 300.84895325 247.25305176 299.96621704 C247.23654635 279.08663626 245.76640831 258.46336917 240.55029297 238.17480469 C239.96069372 235.84465823 239.41743837 233.50651488 238.87890625 231.1640625 C236.0641191 219.12530814 232.32246861 207.57643841 228 196 C227.63503418 194.99743164 227.63503418 194.99743164 227.26269531 193.97460938 C223.47452254 183.59854233 218.5474517 173.98219887 213.25830078 164.30615234 C212.08456707 162.15499041 210.92947881 159.99481111 209.77734375 157.83203125 C199.70969752 139.17411849 186.68147574 121.97862449 172.2734375 106.45703125 C170.25815584 104.27900347 168.30727564 102.06390714 166.375 99.8125 C160.42708478 92.98702352 153.92023706 86.82526284 147 81 C146.49597656 80.56623047 145.99195313 80.13246094 145.47265625 79.68554688 C117.58741305 55.76090981 84.83074815 37.21114772 49.95556641 25.65869141 C48.09998225 25.03367692 46.25839429 24.36755212 44.41796875 23.69921875 C30.16941539 18.62503712 15.25409998 15.81183522 0.375 13.25 C-0.28540283 13.13446777 -0.94580566 13.01893555 -1.6262207 12.89990234 C-14.75861657 10.76067385 -28.01202622 10.7844522 -41.2800293 10.75976562 C-44.39985405 10.75011643 -47.51900235 10.71902923 -50.63867188 10.6875 C-64.33682247 10.61489018 -77.49551479 11.73071714 -91 14 Z " fill="#242323" transform="translate(366,24)"/>
<path d="M0 0 C3.3481848 2.0488892 6.51747836 4.29550472 9.09375 7.28125 C9.09375 7.94125 9.09375 8.60125 9.09375 9.28125 C9.5784375 8.82234375 10.063125 8.3634375 10.5625 7.890625 C20.31465791 -1.03635031 28.76316823 -3.32150552 41.81640625 -3.0546875 C50.43720715 -2.59887937 56.58386316 1.86007103 62.3359375 8.04296875 C67.205601 14.24367361 69.65841266 20.44517783 70.09375 28.28125 C70.62484375 28.00410156 71.1559375 27.72695312 71.703125 27.44140625 C72.40953125 27.07917969 73.1159375 26.71695313 73.84375 26.34375 C74.53984375 25.98410156 75.2359375 25.62445313 75.953125 25.25390625 C83.2774577 21.92587917 93.43141333 21.93970022 101.12109375 24.15234375 C110.76651352 28.68524518 116.01158414 35.63249433 120.09375 45.28125 C121.18747545 48.56242634 121.23215941 50.99523394 121.25196838 54.45048523 C121.26665161 56.38771957 121.26665161 56.38771957 121.28163147 58.36408997 C121.28753568 59.79830896 121.29334613 61.23252833 121.29907227 62.66674805 C121.30865077 64.17456328 121.31866084 65.68237583 121.32907104 67.19018555 C121.35612914 71.2869675 121.37713381 75.38376099 121.39707303 79.48058295 C121.41892699 83.76074311 121.44631857 88.04086769 121.47312927 92.32099915 C121.52306414 100.42759469 121.56800003 108.53420998 121.61115164 116.64084417 C121.66051722 125.8692985 121.71543787 135.09771713 121.77083123 144.32613695 C121.88466346 163.31114149 121.99149981 182.29617972 122.09375 201.28125 C122.75834229 200.59853027 123.42293457 199.91581055 124.10766602 199.21240234 C124.99123779 198.31473145 125.87480957 197.41706055 126.78515625 196.4921875 C127.65599854 195.60321777 128.52684082 194.71424805 129.42407227 193.79833984 C133.28885272 190.15445447 137.35232504 187.62631335 142.09375 185.28125 C143.26744141 184.6625 143.26744141 184.6625 144.46484375 184.03125 C154.927408 179.3304411 168.91782132 179.5915115 179.78125 182.90625 C189.4740741 186.78064156 197.75869542 192.99928328 203.140625 202.04296875 C205.10496302 206.65594288 205.17730976 211.43260353 203.39428711 216.12011719 C200.94808857 221.46032798 197.62076596 225.37043766 193.53125 229.53125 C192.27163401 230.84587392 191.01252505 232.16098384 189.75390625 233.4765625 C188.82215576 234.44190918 188.82215576 234.44190918 187.87158203 235.42675781 C185.35930272 238.04736667 182.91380817 240.72273638 180.46875 243.40625 C176.70778172 247.51963698 172.93794351 251.62440881 169.15625 255.71875 C168.40879517 256.52807983 168.40879517 256.52807983 167.64624023 257.35375977 C165.62217216 259.54500365 163.59769829 261.73587243 161.57324219 263.92675781 C156.23677505 269.70249684 150.90439282 275.48174542 145.59375 281.28125 C141.29087089 285.98022298 136.97649657 290.66840058 132.65112305 295.34667969 C130.08940642 298.11749069 127.53220447 300.89218964 124.984375 303.67578125 C122.03724514 306.89303363 119.07234603 310.0931207 116.09375 313.28125 C115.33578125 314.09464844 114.5778125 314.90804688 113.796875 315.74609375 C89.61140154 340.8583828 55.18304949 355.67184675 20.4609375 356.52734375 C17.71350116 356.56721744 14.9664476 356.58500562 12.21875 356.59375 C10.92356445 356.59938965 9.62837891 356.6050293 8.29394531 356.61083984 C-18.33127113 356.40990767 -39.93663744 347.53951416 -59.90625 330.28125 C-61.04513672 329.29705078 -61.04513672 329.29705078 -62.20703125 328.29296875 C-78.63189221 312.92140549 -91.40140416 287.73244136 -92.16631222 265.00019169 C-92.18096662 263.4947444 -92.18515996 261.98916894 -92.18040466 260.48365784 C-92.18564134 259.64589544 -92.19087802 258.80813304 -92.19627339 257.9449839 C-92.21116643 255.16322421 -92.21197616 252.38165019 -92.21264648 249.59985352 C-92.22027496 247.59506931 -92.22870363 245.59028802 -92.23786926 243.58551025 C-92.25974806 238.15785319 -92.26860378 232.73025244 -92.27369571 227.30255628 C-92.27734588 223.90817366 -92.28358925 220.51380566 -92.2906971 217.11942863 C-92.31516464 205.26833323 -92.32823851 193.41728147 -92.33178711 181.56616211 C-92.33542446 170.53306522 -92.36534119 159.50024615 -92.40719169 148.46723419 C-92.44190985 138.98076572 -92.45733578 129.49438931 -92.45803314 120.00785774 C-92.45882516 114.34799782 -92.46753042 108.68842144 -92.49603081 103.0286274 C-92.52223873 97.70558469 -92.5244012 92.38306017 -92.50837517 87.0599823 C-92.50656311 85.11135666 -92.51322932 83.16270102 -92.52919388 81.21413994 C-92.67366019 62.43007683 -92.67366019 62.43007683 -86.90625 54.28125 C-86.308125 53.353125 -85.71 52.425 -85.09375 51.46875 C-78.47157496 44.84657496 -71.26553534 42.48517938 -61.90625 42.28125 C-51.32081954 43.86668046 -51.32081954 43.86668046 -48.90625 46.28125 C-48.90214111 45.61706055 -48.89803223 44.95287109 -48.89379883 44.26855469 C-48.58935479 16.1817654 -48.58935479 16.1817654 -39.21875 5.84375 C-28.32866522 -3.81615854 -13.44358414 -6.44555404 0 0 Z M-30.65625 17.21875 C-34.04826645 21.83566127 -35.15457322 25.36192255 -35.17126465 31.07011414 C-35.17953781 32.22683624 -35.18781097 33.38355835 -35.19633484 34.57533264 C-35.19535294 35.83526535 -35.19437103 37.09519806 -35.19335938 38.39331055 C-35.1993869 39.74054375 -35.20631199 41.08777319 -35.21406555 42.43499756 C-35.22892841 45.3302133 -35.23769705 48.22536038 -35.24177551 51.12061119 C-35.24849595 55.69610345 -35.27025611 60.27144861 -35.29431152 64.84687805 C-35.34740281 75.38072673 -35.38085102 85.91462061 -35.41407013 96.44854736 C-35.44473479 106.11205013 -35.4795124 115.77548953 -35.53038073 125.43890983 C-35.55376759 129.99029355 -35.56747945 134.54157429 -35.57387543 139.09301221 C-35.57979805 141.91855172 -35.59387955 144.74400716 -35.61021996 147.56950378 C-35.61893208 149.51090167 -35.61767091 151.4523362 -35.61616516 153.39375305 C-35.62443832 154.54201569 -35.63271149 155.69027832 -35.64123535 156.87333679 C-35.64563503 158.37625794 -35.64563503 158.37625794 -35.6501236 159.90954113 C-35.90625 162.28125 -35.90625 162.28125 -37.90625 164.28125 C-43.1754664 164.84180494 -43.1754664 164.84180494 -45.5739975 163.00198746 C-47.9124886 159.98159212 -47.31762544 156.1841227 -47.29101562 152.51464844 C-47.2963884 151.61837234 -47.30176117 150.72209625 -47.30729675 149.79866028 C-47.3170863 147.85072741 -47.32001536 145.90275088 -47.31694031 143.95479584 C-47.31246891 140.86916771 -47.32644499 137.78411517 -47.34533691 134.69854736 C-47.3821674 128.14279109 -47.39582964 121.5870945 -47.40625 115.03125 C-47.41833187 107.44786586 -47.43993467 99.86476075 -47.48625183 92.28150177 C-47.49980649 89.24645489 -47.49565297 86.21176198 -47.49084473 83.17669678 C-47.50018926 81.30626987 -47.51035907 79.43584685 -47.52148438 77.56542969 C-47.51533615 76.72569107 -47.50918793 75.88595245 -47.50285339 75.02076721 C-47.55822086 69.7031449 -48.39229335 65.99564553 -50.90625 61.28125 C-56.00144741 56.55887191 -59.34985084 55.91899315 -66.14453125 56.0078125 C-70.07985604 56.39744862 -72.05358132 57.56773589 -74.90625 60.28125 C-78.39593861 65.42622156 -79.4890463 69.24982868 -79.40745544 75.50097656 C-79.41298984 76.30083386 -79.41852424 77.10069117 -79.42422634 77.92478657 C-79.43778139 80.59080391 -79.42289155 83.25587664 -79.40795898 85.921875 C-79.41174428 87.83943579 -79.41724605 89.75699385 -79.42433167 91.67454529 C-79.43828357 96.87550174 -79.42711483 102.07612722 -79.41062045 107.27706528 C-79.39674472 112.73264561 -79.40323352 118.1882072 -79.40675354 123.64379883 C-79.4094555 132.81353058 -79.39598753 141.98313144 -79.37280273 151.15283203 C-79.34625661 161.72448649 -79.3444258 172.29592126 -79.3561911 182.86759758 C-79.36701169 193.0620286 -79.36074423 203.25638086 -79.34663582 213.45080566 C-79.34090664 217.77577598 -79.34093456 222.10068808 -79.34570122 226.42565918 C-79.35051134 231.53440147 -79.34020396 236.64290676 -79.31874657 241.75160408 C-79.3132307 243.61586775 -79.31266487 245.48015445 -79.31769943 247.34441948 C-79.38356422 275.25710749 -71.63060195 298.6676808 -52.21875 319.34375 C-33.52248556 337.38528145 -10.59854369 343.71352933 14.76953125 343.4296875 C50.13971011 342.64639438 79.82417081 329.88358912 105.09375 305.28125 C105.58004883 304.81009766 106.06634766 304.33894531 106.56738281 303.85351562 C111.68636133 298.87380593 116.57607688 293.76065632 121.25756836 288.36694336 C124.24738687 284.97084982 127.35952679 281.69270578 130.46875 278.40625 C135.28767282 273.29081429 140.05087365 268.13814534 144.73046875 262.89453125 C148.37086562 258.86903454 152.08784931 254.91577646 155.79663086 250.95336914 C160.35098326 246.08496577 164.86665822 241.18342874 169.36328125 236.26171875 C171.83864457 233.55448825 174.3311455 230.86345645 176.82666016 228.17480469 C178.36002936 226.51867115 179.8858351 224.85586579 181.41015625 223.19140625 C182.97862282 221.49052184 184.56279576 219.80343703 186.18359375 218.15234375 C188.86676465 215.3302793 190.04787089 213.52315802 190.78125 209.65625 C189.76162697 204.65082785 187.25491406 202.81225945 183.19140625 199.93359375 C174.1940975 194.01022158 165.57333379 193.44539087 155.09375 194.28125 C144.81031497 196.84119988 136.73682327 205.34487389 129.34375 212.46875 C127.87156997 213.88076267 126.39767115 215.29098598 124.921875 216.69921875 C124.2815332 217.31563232 123.64119141 217.9320459 122.98144531 218.56713867 C118.91259973 222.26183149 116.77439153 223.65505538 111.12280273 223.66601562 C109.91732285 223.67612671 108.71184296 223.68623779 107.46983337 223.69665527 C105.51830101 223.69212341 105.51830101 223.69212341 103.52734375 223.6875 C102.16934464 223.69674228 100.81135631 223.70771603 99.4533844 223.72033691 C95.14602045 223.75707676 90.83874743 223.77079695 86.53125 223.78125 C81.55960717 223.79339059 76.58838539 223.81534416 71.61693001 223.86125183 C69.64142897 223.87465014 67.66583339 223.87048285 65.69029236 223.86584473 C50.25528703 223.9929803 36.8659774 228.23109286 25.71875 239.15625 C25.2431665 239.65705078 24.76758301 240.15785156 24.27758789 240.67382812 C21.7728594 243.20968487 20.45638968 244.23783848 16.86328125 244.66796875 C14.09375 244.28125 14.09375 244.28125 12.15625 243.21875 C10.4207646 240.05404134 11.28237229 237.70787193 12.09375 234.28125 C21.56064283 222.58078899 37.04982966 214.48726543 51.88304138 212.48948669 C56.77055071 212.02910997 61.6843021 212.03644191 66.58984375 211.96484375 C67.77852554 211.94406265 68.96720734 211.92328156 70.19190979 211.90187073 C73.97163368 211.83673013 77.75142431 211.77765575 81.53125 211.71875 C84.10091823 211.67553101 86.67057983 211.63191566 89.24023438 211.58789062 C95.52466999 211.48108527 101.8091713 211.37925429 108.09375 211.28125 C108.18724959 190.55805075 108.2577568 169.83488635 108.30099869 149.11151886 C108.32161158 139.48898766 108.34970784 129.86658763 108.39550781 120.24414062 C108.43541455 111.85583644 108.46119207 103.46762727 108.47010398 95.07923079 C108.47531223 90.63884689 108.48752693 86.19873478 108.51667023 81.75843811 C108.54390003 77.57563871 108.55217979 73.39322203 108.54618073 69.21034241 C108.54727759 67.67852699 108.55518652 66.14669826 108.5705719 64.61495972 C108.65713439 55.54926432 108.61045808 48.30299084 102.2421875 41.22265625 C101.65695312 40.76761719 101.07171875 40.31257813 100.46875 39.84375 C99.58316406 39.13412109 99.58316406 39.13412109 98.6796875 38.41015625 C94.054456 35.11781166 88.55294428 35.77325158 83.09375 36.28125 C77.19620872 39.0691786 72.6112707 44.2322334 70.09375 50.28125 C69.79197041 52.53345541 69.79197041 52.53345541 69.82873535 54.95606995 C69.82046219 55.89120422 69.81218903 56.8263385 69.80366516 57.78981018 C69.80513802 59.31806679 69.80513802 59.31806679 69.80664062 60.87719727 C69.79980759 61.95560883 69.79297455 63.03402039 69.78593445 64.14511108 C69.77234511 66.48646013 69.76329269 68.82783888 69.75822449 71.16922188 C69.74994732 74.87121602 69.7294542 78.57296209 69.70568848 82.27488708 C69.65332973 90.79954887 69.6191747 99.32426125 69.58592987 107.84901428 C69.55281349 116.2861428 69.51200115 124.72314887 69.45780945 133.1601696 C69.43768786 136.81354734 69.42941122 140.46683282 69.42150879 144.12025452 C69.4085411 146.35173889 69.39502149 148.58322015 69.38085938 150.81469727 C69.38233223 152.34599022 69.38233223 152.34599022 69.38383484 153.90821838 C69.37556168 154.84053284 69.36728851 155.77284729 69.35876465 156.7334137 C69.35583153 157.54400521 69.35289841 158.35459673 69.3498764 159.18975163 C69.09375 161.28125 69.09375 161.28125 67.09375 164.28125 C64.02875645 164.67252577 62.00794658 164.93007468 59.42558193 163.09731579 C57.59541736 160.60173118 57.72010028 158.93017667 57.72193909 155.84919739 C57.71518158 154.72072388 57.70842407 153.59225037 57.70146179 152.42958069 C57.70918106 151.19058517 57.71690033 149.95158966 57.72485352 148.67504883 C57.7190717 146.6728236 57.7132872 144.67059839 57.70740211 142.66837347 C57.70391528 140.51458402 57.70777422 138.36091563 57.71362495 136.20713234 C57.72520607 131.71414028 57.71304556 127.22140623 57.69700623 122.72843933 C57.66080257 111.56449956 57.65457748 100.40056539 57.65710449 89.23657227 C57.65881763 80.56809032 57.65162719 71.89981907 57.61712593 63.2313959 C57.60037097 58.7701725 57.60209348 54.30946344 57.61794865 49.8482424 C57.62513386 46.41022275 57.60649069 42.97241865 57.59204102 39.53442383 C57.60178452 38.30554947 57.61152802 37.07667511 57.62156677 35.81056213 C57.55051731 27.33438408 56.29665932 22.07416893 50.71875 15.46875 C45.06039179 10.7534515 40.42809468 9.59527075 33.1328125 9.8125 C27.37947179 10.69990474 23.28419565 13.33325458 19.82387924 17.99029636 C15.51774964 24.80949062 15.38489794 30.83925219 15.45019531 38.75561523 C15.44336759 40.09359478 15.4343388 41.43156461 15.42329407 42.76951599 C15.39954606 46.37663615 15.40596276 49.9831341 15.41778278 53.59028888 C15.42466167 57.37171692 15.40249097 61.15297224 15.38323975 64.93434143 C15.35102051 72.08573034 15.34312133 79.23691739 15.34481406 86.38837057 C15.34627869 96.90151476 15.31275996 107.41456139 15.27708054 117.92763615 C15.27185597 119.47780418 15.26663363 121.02797221 15.26141357 122.57814026 C15.25880862 123.33465993 15.25620367 124.09117961 15.25351977 124.87062413 C15.23886948 129.37183205 15.23193671 133.87297036 15.23176527 138.37420166 C15.23127501 140.49477858 15.22872645 142.61534195 15.22538757 144.73591614 C15.22170265 147.3244908 15.22174246 149.91307432 15.22608948 152.50164795 C15.22352646 153.63571579 15.22096344 154.76978363 15.21832275 155.93821716 C15.2183643 156.92759498 15.21840584 157.91697279 15.21844864 158.93633175 C15.09375 161.28125 15.09375 161.28125 14.09375 163.28125 C10.71875 164.09375 10.71875 164.09375 7.09375 164.28125 C5.39042568 163.13721752 5.39042568 163.13721752 4.09375 161.28125 C3.72016239 158.79487324 3.72016239 158.79487324 3.72193909 155.77326965 C3.71518158 154.62796783 3.70842407 153.48266602 3.70146179 152.30265808 C3.70918106 151.04496109 3.71690033 149.7872641 3.72485352 148.49145508 C3.72238567 147.15425305 3.71854742 145.81705295 3.71343994 144.4798584 C3.70509634 141.59875365 3.70591436 138.71784651 3.71362495 135.83674049 C3.72520528 131.27653994 3.71304624 126.71659361 3.69700623 122.15641785 C3.66080135 110.82552635 3.65457761 99.49464036 3.65710449 88.16369629 C3.65881755 79.36552963 3.65162977 70.56757056 3.61712593 61.76946181 C3.60036923 57.24133785 3.60209501 52.71372061 3.61794865 48.18559897 C3.62376698 45.35971561 3.61296677 42.5340697 3.59770203 39.70822906 C3.59223052 37.78463896 3.60654404 35.86102397 3.62156677 33.93748474 C3.56349443 26.90743327 2.91547179 22.24235523 -0.90625 16.28125 C-5.44810427 11.85585353 -10.02697603 9.99584963 -16.34375 9.90625 C-22.90015711 10.04705874 -26.36762889 12.42193969 -30.65625 17.21875 Z " fill="#232021" transform="translate(301.90625,148.71875)"/>
</svg>
