<?xml version="1.0" encoding="UTF-8"?>
<svg version="1.1" xmlns="http://www.w3.org/2000/svg" width="653" height="650">
<path d="M0 0 C1.69168304 0.00323273 1.69168304 0.00323273 3.4175415 0.00653076 C19.77418723 0.05670363 35.8048946 0.3644897 51.9375 3.3125 C53.08154297 3.51649414 54.22558594 3.72048828 55.40429688 3.93066406 C118.00887651 15.36323881 181.63520286 43.22061098 226.375 89.75 C228.10815598 91.48315598 229.93938648 93.04456047 231.8125 94.625 C236.6358319 98.80152494 240.76001536 103.50146319 244.9375 108.3125 C245.87614983 109.37643643 246.8149588 110.44023247 247.75390625 111.50390625 C286.67044908 155.90300701 312.3522576 210.28496635 322.9375 268.3125 C323.13504883 269.36469727 323.33259766 270.41689453 323.53613281 271.50097656 C329.98167857 307.35762143 329.75103444 346.53366616 322.9375 382.3125 C322.72319336 383.45783203 322.50888672 384.60316406 322.28808594 385.78320312 C309.72411196 450.9988235 276.09801194 520.40337295 223.9453125 563.609375 C221.42769438 565.74494212 219.07783689 568.03535455 216.6875 570.3125 C159.31744845 623.75708395 78.31999651 650.89132978 0.875 650.625 C-0.81668304 650.62176727 -0.81668304 650.62176727 -2.5425415 650.61846924 C-18.89918723 650.56829637 -34.9298946 650.2605103 -51.0625 647.3125 C-52.77856445 647.00650879 -52.77856445 647.00650879 -54.52929688 646.69433594 C-117.13387651 635.26176119 -180.76020286 607.40438902 -225.5 560.875 C-227.23315598 559.14184402 -229.06438648 557.58043953 -230.9375 556 C-235.76136121 551.82177987 -239.87328664 547.11492641 -244.0625 542.3125 C-245.0629195 541.19712442 -246.06427146 540.08258469 -247.06640625 538.96875 C-286.13432116 495.19457513 -311.57094413 439.82645085 -322.0625 382.3125 C-322.35882324 380.7342041 -322.35882324 380.7342041 -322.66113281 379.12402344 C-329.10667857 343.26737857 -328.87603444 304.09133384 -322.0625 268.3125 C-321.84819336 267.16716797 -321.63388672 266.02183594 -321.41308594 264.84179688 C-308.84911196 199.6261765 -275.22301194 130.22162705 -223.0703125 87.015625 C-220.55269438 84.88005788 -218.20283689 82.58964545 -215.8125 80.3125 C-158.44244845 26.86791605 -77.44499651 -0.26632978 0 0 Z " fill="#FEE749" transform="translate(326.0625,-0.31250000000000006)"/>
<path d="M0 0 C3.2377414 2.17860446 5.87674696 4.72753846 8.5625 7.5625 C9.88300232 8.57938318 11.21436162 9.58255067 12.5625 10.5625 C12.95179688 10.05460937 13.34109375 9.54671875 13.7421875 9.0234375 C20.09535438 1.20640728 28.53455968 -4.53946713 38.5625 -6.4375 C51.17400133 -7.58111221 61.31409938 -4.86288543 71.5625 2.5625 C74.0444429 4.77360477 76.34835949 7.08442221 78.5625 9.5625 C81.66894456 8.18033744 83.76141506 6.55164235 86.1875 4.1875 C93.99166096 -2.67156991 101.59125767 -4.13757151 111.87890625 -3.81640625 C121.18791994 -2.85885129 129.00468955 0.85649045 135.5625 7.5625 C142.05176609 15.98737892 144.89597202 23.65610387 144.75439453 34.22900391 C144.75158981 35.0674585 144.7487851 35.90591309 144.74589539 36.76977539 C144.73942549 38.58070309 144.72887043 40.39161991 144.71463394 42.2025032 C144.69503364 45.08000182 144.69298281 47.95700571 144.69650269 50.83456421 C144.70615263 59.01282446 144.7068227 67.19060139 144.64160156 75.36865234 C144.60289516 80.38272243 144.60362374 85.39551207 144.62917709 90.4096489 C144.63157392 92.30804521 144.61970771 94.20652069 144.59259415 96.10472488 C144.44248122 107.06433784 144.93744701 114.83663534 151.60714722 123.79672241 C161.35366096 137.58282255 160.02138834 159.39917088 157.9375 175.3125 C150.23087856 215.40848848 129.55934477 251.19615894 95.44726562 274.32373047 C67.76748454 292.51637415 37.42805041 300.00878197 4.625 300 C3.77276855 300.0010675 2.92053711 300.00213501 2.04248047 300.00323486 C-17.80058634 299.96748912 -36.41161281 297.21738114 -54.4375 288.5625 C-55.05383301 288.27004395 -55.67016602 287.97758789 -56.30517578 287.67626953 C-65.9272617 283.04776933 -74.25912627 277.40221409 -82.4375 270.5625 C-83.38367188 269.78132813 -84.32984375 269.00015625 -85.3046875 268.1953125 C-99.91909605 255.5681323 -110.16992551 239.34958062 -117.4375 221.5625 C-117.86933594 220.50804687 -118.30117187 219.45359375 -118.74609375 218.3671875 C-125.82161301 199.93304532 -125.91247599 181.70759102 -125.90625 162.19921875 C-125.91072002 160.16312552 -125.91688324 158.12704169 -125.92311716 156.09095317 C-125.9422024 149.71416318 -125.94528712 143.33750404 -125.93847656 136.96069336 C-125.93181874 130.41940362 -125.95480369 123.87867527 -125.99179029 117.33749932 C-126.02260775 111.67838455 -126.03383522 106.01944954 -126.02995348 100.36025268 C-126.02790149 96.99854784 -126.03541439 93.63763035 -126.05784607 90.27594566 C-126.08011421 86.52946199 -126.07029454 82.78432297 -126.05273438 79.0378418 C-126.06599762 77.94820129 -126.07926086 76.85856079 -126.09292603 75.73590088 C-125.96710197 64.11435935 -121.80286715 54.98118033 -113.76171875 46.6875 C-105.33317154 38.98139969 -96.16579004 35.92727565 -84.7890625 36.20703125 C-76.66389852 37.06879107 -70.08355939 39.90340682 -63.4375 44.5625 C-63.42332031 43.41394531 -63.40914062 42.26539063 -63.39453125 41.08203125 C-63.0446046 27.12116458 -60.93039373 16.03292764 -50.74609375 5.71484375 C-49.98425781 5.00457031 -49.22242188 4.29429687 -48.4375 3.5625 C-47.80972656 2.96566406 -47.18195313 2.36882812 -46.53515625 1.75390625 C-33.05332031 -9.67572633 -14.51045529 -8.61899224 0 0 Z " fill="#272323" transform="translate(308.4375,179.4375)"/>
<path d="M0 0 C1.69168304 0.00323273 1.69168304 0.00323273 3.4175415 0.00653076 C19.77418723 0.05670363 35.8048946 0.3644897 51.9375 3.3125 C53.08154297 3.51649414 54.22558594 3.72048828 55.40429688 3.93066406 C118.00887651 15.36323881 181.63520286 43.22061098 226.375 89.75 C228.10815598 91.48315598 229.93938648 93.04456047 231.8125 94.625 C236.6358319 98.80152494 240.76001536 103.50146319 244.9375 108.3125 C245.87614983 109.37643643 246.8149588 110.44023247 247.75390625 111.50390625 C286.67044908 155.90300701 312.3522576 210.28496635 322.9375 268.3125 C323.13504883 269.36469727 323.33259766 270.41689453 323.53613281 271.50097656 C329.98167857 307.35762143 329.75103444 346.53366616 322.9375 382.3125 C322.72319336 383.45783203 322.50888672 384.60316406 322.28808594 385.78320312 C309.72411196 450.9988235 276.09801194 520.40337295 223.9453125 563.609375 C221.42769438 565.74494212 219.07783689 568.03535455 216.6875 570.3125 C159.31744845 623.75708395 78.31999651 650.89132978 0.875 650.625 C-0.81668304 650.62176727 -0.81668304 650.62176727 -2.5425415 650.61846924 C-18.89918723 650.56829637 -34.9298946 650.2605103 -51.0625 647.3125 C-52.77856445 647.00650879 -52.77856445 647.00650879 -54.52929688 646.69433594 C-117.13387651 635.26176119 -180.76020286 607.40438902 -225.5 560.875 C-227.23315598 559.14184402 -229.06438648 557.58043953 -230.9375 556 C-235.76136121 551.82177987 -239.87328664 547.11492641 -244.0625 542.3125 C-245.0629195 541.19712442 -246.06427146 540.08258469 -247.06640625 538.96875 C-286.13432116 495.19457513 -311.57094413 439.82645085 -322.0625 382.3125 C-322.35882324 380.7342041 -322.35882324 380.7342041 -322.66113281 379.12402344 C-329.10667857 343.26737857 -328.87603444 304.09133384 -322.0625 268.3125 C-321.84819336 267.16716797 -321.63388672 266.02183594 -321.41308594 264.84179688 C-308.84911196 199.6261765 -275.22301194 130.22162705 -223.0703125 87.015625 C-220.55269438 84.88005788 -218.20283689 82.58964545 -215.8125 80.3125 C-158.44244845 26.86791605 -77.44499651 -0.26632978 0 0 Z M-72.68017578 30.68457031 C-75.05945854 31.31169834 -77.44625425 31.89110529 -79.83984375 32.4609375 C-121.9597604 42.68683311 -160.7185837 63.90409808 -194.0625 91.3125 C-194.60084473 91.74788086 -195.13918945 92.18326172 -195.69384766 92.63183594 C-210.80076819 104.88847907 -225.3314409 118.76453381 -237.0625 134.3125 C-238.08178874 135.61709369 -239.10276925 136.92036653 -240.125 138.22265625 C-258.37754888 161.59671218 -273.02684237 186.73865488 -284.0625 214.3125 C-284.55073242 215.51302002 -284.55073242 215.51302002 -285.04882812 216.73779297 C-288.97403083 226.47499989 -292.05157387 236.37319473 -294.8125 246.5 C-295.09440186 247.53229736 -295.37630371 248.56459473 -295.66674805 249.62817383 C-310.73240301 306.79129048 -308.36871428 368.48101546 -289.0625 424.3125 C-288.7221875 425.3746875 -288.381875 426.436875 -288.03125 427.53125 C-284.03214513 439.52856462 -278.52311664 450.92544114 -273.0625 462.3125 C-272.65902344 463.15506348 -272.25554687 463.99762695 -271.83984375 464.86572266 C-262.6648692 483.75606221 -250.81799778 501.62008296 -237.36914062 517.74560547 C-236.02938114 519.3522154 -234.7104328 520.97463646 -233.390625 522.59765625 C-221.70941716 536.76283437 -208.6198087 550.10816226 -194.0625 561.3125 C-192.8684726 562.28063033 -191.67726865 563.25224904 -190.48828125 564.2265625 C-182.95048188 570.38624673 -175.30699448 576.11297215 -167.0625 581.3125 C-166.09570312 581.93253906 -165.12890625 582.55257812 -164.1328125 583.19140625 C-147.81044539 593.47075958 -130.97858746 602.16685738 -113.0625 609.3125 C-112.28616211 609.62670898 -111.50982422 609.94091797 -110.70996094 610.26464844 C-100.94194158 614.1844061 -91.02900846 617.29715926 -80.875 620.0625 C-79.84286377 620.34432129 -78.81072754 620.62614258 -77.74731445 620.91650391 C-28.89487576 633.79365157 24.07071831 634.21116897 72.9375 621.3125 C73.91187012 621.05597656 74.88624023 620.79945313 75.89013672 620.53515625 C118.5560008 609.09005361 157.74876403 589.27973262 191.9375 561.3125 C192.4855127 560.86890137 193.03352539 560.42530273 193.59814453 559.96826172 C208.38612414 547.93640217 222.28707701 534.4165193 233.9375 519.3125 C234.84657586 518.21179027 235.75961904 517.11434979 236.67578125 516.01953125 C257.0588968 491.48808476 273.17726793 462.31613465 283.9375 432.3125 C284.43654822 431.04129261 284.93645073 429.77042001 285.4375 428.5 C301.37155765 385.14868114 306.49467278 337.59818791 301.125 291.8125 C301.04222809 291.09940674 300.95945618 290.38631348 300.87417603 289.65161133 C294.03413077 231.88417576 270.86079475 178.20590414 233.9375 133.3125 C233.27645264 132.49700684 233.27645264 132.49700684 232.60205078 131.66503906 C220.5678042 116.87176384 207.04609723 102.96645416 191.9375 91.3125 C190.83679027 90.40342414 189.73934979 89.49038096 188.64453125 88.57421875 C164.11308476 68.1911032 134.94113465 52.07273207 104.9375 41.3125 C103.66629261 40.81345178 102.39542001 40.31354927 101.125 39.8125 C46.69756209 19.80734315 -16.42099834 15.71684389 -72.68017578 30.68457031 Z " fill="#FCFDFD" transform="translate(326.0625,-0.31250000000000006)"/>
<path d="M0 0 C1.84171783 -0.01279495 1.84171783 -0.01279495 3.72064209 -0.02584839 C5.08905042 -0.02514926 6.45745865 -0.02422614 7.8258667 -0.02310181 C9.26155956 -0.02908405 10.69724919 -0.03588889 12.13293457 -0.04345703 C16.04273946 -0.06117193 19.95245687 -0.06581518 23.86229801 -0.0670886 C26.30907413 -0.06850958 28.75582798 -0.07277853 31.20259857 -0.07808304 C39.75151479 -0.0966132 48.30036857 -0.10475139 56.8493042 -0.10317993 C64.79375037 -0.1019831 72.73792282 -0.12298703 80.68229985 -0.15466726 C87.51563636 -0.1809365 94.34888423 -0.19154254 101.18227077 -0.19026911 C105.25726465 -0.18976187 109.33201631 -0.19530994 113.40695953 -0.21662521 C117.25169388 -0.2361834 121.09595979 -0.23601401 124.94071198 -0.22159195 C126.34099014 -0.21952313 127.74129894 -0.22408768 129.14152527 -0.23631287 C145.56005419 -0.37019977 159.34671757 3.5611215 171.42254639 14.89242554 C182.43403961 26.45795616 186.90411182 39.19725386 186.51629639 55.03305054 C185.31416448 76.05032343 180.41347079 96.04321911 170.20672607 114.50814819 C169.30055616 116.14881663 168.42662888 117.80717888 167.55535889 119.46664429 C163.09844154 127.62344278 157.48716278 134.44975985 151.23504639 141.26742554 C150.52106689 142.04932251 150.52106689 142.04932251 149.79266357 142.84701538 C128.92309897 165.40736844 97.87716577 181.92657613 66.83901978 183.3795929 C64.16080791 183.4479289 61.48436005 183.48443475 58.80535889 183.50570679 C57.81615448 183.51377853 56.82695007 183.52185028 55.80776978 183.53016663 C53.71844192 183.54393991 51.62909221 183.55469197 49.53973389 183.56259155 C47.43777706 183.57405032 45.3358479 183.59440382 43.23406982 183.62411499 C23.09483924 183.90796714 6.32037631 181.23722657 -11.76495361 172.26742554 C-12.78460205 171.77113647 -13.80425049 171.27484741 -14.85479736 170.76351929 C-21.49406115 167.34611422 -27.1121898 163.1216243 -32.76495361 158.26742554 C-33.98311768 157.26775757 -33.98311768 157.26775757 -35.22589111 156.24789429 C-53.11464227 141.03963423 -64.51537176 119.99538397 -69.76495361 97.26742554 C-69.92884079 96.57425735 -70.09272797 95.88108917 -70.26158142 95.16691589 C-71.63832174 88.92138979 -72.03259159 83.04765111 -71.96026611 76.66586304 C-71.95743622 75.70338654 -71.95460632 74.74091003 -71.95169067 73.74926758 C-71.94060939 70.71352018 -71.91552821 67.67808183 -71.88995361 64.64242554 C-71.87990821 62.56821109 -71.87078511 60.49399195 -71.86260986 58.41976929 C-71.8407097 53.36887127 -71.80626485 48.31820057 -71.76495361 43.26742554 C-71.12428955 43.67734741 -70.48362549 44.08726929 -69.82354736 44.50961304 C-59.07708896 51.20412811 -49.06407376 53.01239108 -36.47589111 50.65023804 C-29.79508783 48.69951253 -25.01674999 45.57073957 -19.82354736 40.97445679 C-17.76495361 39.26742554 -17.76495361 39.26742554 -14.76495361 38.26742554 C-14.31764893 38.93129272 -13.87034424 39.59515991 -13.40948486 40.27914429 C-10.16534152 45.01739203 -7.05501347 49.40637167 -2.76495361 53.26742554 C-2.28928955 53.73535522 -1.81362549 54.20328491 -1.32354736 54.68539429 C16.04386371 70.9647266 41.12367382 68.89043247 63.23504639 69.26742554 C62.64626709 69.95360962 62.64626709 69.95360962 62.04559326 70.65365601 C60.95962787 71.91983835 59.8743714 73.18662897 58.78973389 74.45394897 C57.64073366 75.79420867 56.48624852 77.12977062 55.32879639 78.46273804 C45.01847962 90.94630784 41.8699658 104.15708158 41.91937256 119.95077515 C41.92256533 122.0926354 41.8988974 124.23315402 41.87371826 126.37484741 C41.87144795 127.74138214 41.87074052 129.10792056 41.87176514 130.47445679 C41.86878418 131.70655884 41.86580322 132.93866089 41.86273193 134.20809937 C41.99088124 137.23267398 41.99088124 137.23267398 43.56634521 139.19979858 C45.33546048 140.55619912 45.33546048 140.55619912 48.29754639 140.14242554 C51.52760054 139.52092141 51.52760054 139.52092141 53.23504639 136.26742554 C53.5389355 133.44234111 53.5389355 133.44234111 53.50848389 130.23617554 C53.52910889 129.03219116 53.54973389 127.82820679 53.57098389 126.58773804 C53.59670535 124.07217849 53.61512351 121.55653197 53.62567139 119.04086304 C53.89764656 104.80749586 58.63528179 92.90571342 68.48504639 82.51742554 C78.98016532 72.5505844 90.0260961 69.27136926 104.07489014 67.79476929 C107.32244361 67.5674117 107.32244361 67.5674117 109.23504639 65.26742554 C109.65171305 61.76742554 109.65171305 61.76742554 109.23504639 58.26742554 C105.59842958 55.84301434 102.94128674 55.99462842 98.7411499 56.02792358 C97.97970169 56.02590942 97.21825348 56.02389526 96.43373108 56.02182007 C94.77881292 56.01827361 93.12388122 56.01904284 91.46896553 56.02359581 C88.83988551 56.02919555 86.21124574 56.02001651 83.5821991 56.00639343 C76.10651842 55.96931418 68.63098247 55.95065486 61.1552124 55.96200562 C56.58033491 55.96789843 52.00607073 55.94938716 47.43131828 55.91611671 C45.69682468 55.90822046 43.96226318 55.90936037 42.22778511 55.92014122 C29.27854225 55.99709174 18.89979933 54.39295159 8.23504639 46.26742554 C7.26567139 45.58680054 6.29629639 44.90617554 5.29754639 44.20492554 C-1.54837341 38.33184698 -6.50259092 29.1613445 -7.76495361 20.26742554 C-8.16360239 14.27006656 -8.24155082 8.25893329 -7.76495361 2.26742554 C-5.08140892 -0.41611916 -3.75315668 0.01174136 0 0 Z " fill="#FEFEFE" transform="translate(267.76495361328125,281.7325744628906)"/>
<path d="M0 0 C0.82258301 0.21301758 1.64516602 0.42603516 2.49267578 0.64550781 C7.02768579 1.83736089 11.53892448 3.09687254 16.03662109 4.42236328 C17.8923177 4.96831928 19.75268377 5.49833063 21.61328125 6.02734375 C27.61528447 7.78351155 33.24952181 9.85096276 38.89453125 12.5390625 C41.23442621 13.63984327 43.57452014 14.69071332 45.94921875 15.7109375 C71.68167076 26.79175891 95.85983389 40.70102159 117.43310547 58.69335938 C119.0397154 60.03311886 120.66213646 61.3520672 122.28515625 62.671875 C136.45033437 74.35308284 149.79566226 87.4426913 161 102 C161.96813033 103.1940274 162.93974904 104.38523135 163.9140625 105.57421875 C170.07374673 113.11201812 175.80047215 120.75550552 181 129 C181.62003906 129.96679688 182.24007812 130.93359375 182.87890625 131.9296875 C193.15825958 148.25205461 201.85435738 165.08391254 209 183 C209.47131348 184.16450684 209.47131348 184.16450684 209.95214844 185.35253906 C213.8719061 195.12055842 216.98465926 205.03349154 219.75 215.1875 C220.03182129 216.21963623 220.31364258 217.25177246 220.60400391 218.31518555 C233.51355637 267.29055935 233.71071552 319.99355748 221 369 C220.68047363 370.23387451 220.68047363 370.23387451 220.35449219 371.49267578 C219.16263911 376.02768579 217.90312746 380.53892448 216.57763672 385.03662109 C216.03168072 386.8923177 215.50166937 388.75268377 214.97265625 390.61328125 C213.20121568 396.66748175 211.10279126 402.34124093 208.390625 408.03515625 C207.11115157 410.76302236 205.93024924 413.51945812 204.76513672 416.29760742 C194.05624125 441.55986025 179.89794713 465.34068062 162.30664062 486.43310547 C160.96688114 488.0397154 159.6479328 489.66213646 158.328125 491.28515625 C146.6429768 505.45511264 133.54901918 518.77767406 119 530 C117.89929027 530.90907586 116.80184979 531.82211904 115.70703125 532.73828125 C72.4217036 568.70394825 17.49302423 590.0822215 -38 597 C-39.64583441 597.22655466 -41.29166782 597.45311665 -42.9375 597.6796875 C-64.69291402 600.46495925 -86.77108199 599.71587675 -108.5 597.1875 C-109.213909 597.10481873 -109.92781799 597.02213745 -110.6633606 596.93695068 C-168.42991935 590.09528366 -222.10702875 566.92293871 -267 530 C-267.81549316 529.33895264 -267.81549316 529.33895264 -268.64746094 528.66455078 C-283.44073616 516.6303042 -297.34604584 503.10859723 -309 488 C-309.90907586 486.89929027 -310.82211904 485.80184979 -311.73828125 484.70703125 C-332.1213968 460.17558476 -348.23976793 431.00363465 -359 401 C-359.49904822 399.72879261 -359.99895073 398.45792001 -360.5 397.1875 C-387.84537216 322.59540149 -383.00257945 238.80593993 -350.1875 166.8125 C-339.27576151 143.41185554 -325.39428256 121.93308446 -309 102 C-308.55930176 101.45633789 -308.11860352 100.91267578 -307.66455078 100.35253906 C-295.63437033 85.56426219 -282.11716011 71.63523911 -267 60 C-265.8059726 59.03186967 -264.61476865 58.06025096 -263.42578125 57.0859375 C-255.88798188 50.92625327 -248.24449448 45.19952785 -240 40 C-238.54980469 39.06994141 -238.54980469 39.06994141 -237.0703125 38.12109375 C-220.74794539 27.84174042 -203.91608746 19.14564262 -186 12 C-184.83549316 11.52868652 -184.83549316 11.52868652 -183.64746094 11.04785156 C-126.11924588 -12.03734651 -59.88104398 -15.53124193 0 0 Z M-292 102 C-295.19022136 105.51980714 -298.11224148 109.22971567 -301 113 C-301.75925781 113.94230469 -302.51851562 114.88460937 -303.30078125 115.85546875 C-351.65475286 176.70281101 -371.5063463 255.20640546 -362.9375 332 C-353.52507034 403.71932111 -316.10826754 475.05129084 -258.63671875 519.98046875 C-257.76660156 520.64691406 -256.89648438 521.31335938 -256 522 C-255.05769531 522.75925781 -254.11539063 523.51851562 -253.14453125 524.30078125 C-192.29718899 572.65475286 -113.79359454 592.5063463 -37 583.9375 C34.71932111 574.52507034 106.05129084 537.10826754 150.98046875 479.63671875 C151.64691406 478.76660156 152.31335938 477.89648438 153 477 C154.13888672 475.58654297 154.13888672 475.58654297 155.30078125 474.14453125 C203.34467439 413.68738343 222.97546151 335.67831669 214.9699707 259.40869141 C205.82353496 186.98792587 168.69244668 115.40539927 110.63671875 70.01953125 C109.76660156 69.35308594 108.89648438 68.68664062 108 68 C107.05769531 67.24074219 106.11539062 66.48148438 105.14453125 65.69921875 C28.23054034 4.57745411 -80.23410599 -12.39622558 -292 102 Z " fill="#272322" transform="translate(399,31)"/>
<path d="M0 0 C6.69481266 4.56350526 10.90002495 10.6687384 13.0859375 18.421875 C13.32644653 21.42123413 13.32644653 21.42123413 13.31298828 24.61083984 C13.31283722 25.81163177 13.31268616 27.01242371 13.31253052 28.24960327 C13.30220795 29.53106232 13.29188538 30.81252136 13.28125 32.1328125 C13.2775154 33.46944974 13.27467054 34.80608974 13.27267456 36.14273071 C13.26507327 39.64442632 13.24545538 43.1459535 13.2232666 46.64758301 C13.20273224 50.22727133 13.19354676 53.80698794 13.18359375 57.38671875 C13.1632695 64.39858579 13.12411472 71.40999155 13.0859375 78.421875 C-5.0640625 78.421875 -23.2140625 78.421875 -41.9140625 78.421875 C-41.97714412 70.76096265 -42.03722874 63.10100253 -42.06931305 55.44005585 C-42.08509063 51.87178828 -42.10614002 48.30373792 -42.14038086 44.7355957 C-42.17950635 40.63230401 -42.19382567 36.52923886 -42.20703125 32.42578125 C-42.22251511 31.15980606 -42.23799896 29.89383087 -42.25395203 28.5894928 C-42.25589032 18.31978701 -40.97708902 10.74814733 -33.81640625 3.1484375 C-24.41736967 -5.38210494 -10.88570313 -6.27072866 0 0 Z " fill="#FCFCFC" transform="translate(368.9140625,190.578125)"/>
<path d="M0 0 C1.14809278 0.71414842 2.27680501 1.46127143 3.375 2.25 C4.261875 2.8275 5.14875 3.405 6.0625 4 C10.97067805 8.77552459 14.20224768 14.17768349 14.49525452 21.08477783 C14.49303391 22.17731873 14.49081329 23.26985962 14.48852539 24.39550781 C14.48844986 25.63649231 14.48837433 26.87747681 14.48829651 28.15606689 C14.48319031 29.50508667 14.47797432 30.85410604 14.47265625 32.203125 C14.47079024 33.58746286 14.4693672 34.97180138 14.46836853 36.35614014 C14.46455773 39.99261308 14.45473975 43.62904582 14.44366455 47.26550293 C14.4334195 50.97907966 14.42880944 54.6926631 14.42382812 58.40625 C14.41364736 65.68753545 14.39407206 72.96871065 14.375 80.25 C-3.115 80.25 -20.605 80.25 -38.625 80.25 C-38.68804245 72.31132095 -38.74813186 64.37355712 -38.78025055 56.43484497 C-38.79604274 52.73737799 -38.8171198 49.04011988 -38.85131836 45.34277344 C-38.88409442 41.77659558 -38.90189109 38.21061932 -38.90963173 34.64430237 C-38.91781099 32.63255153 -38.94120093 30.62088093 -38.96488953 28.60925293 C-38.96643991 20.12029684 -38.32922836 14.19044704 -33.4375 7.0625 C-24.88340301 -1.49159699 -11.44848768 -5.60338648 0 0 Z " fill="#FDFDFD" transform="translate(298.625,188.75)"/>
<path d="M0 0 C6.50371696 3.90498016 11.49685468 9.03912537 13.625 16.4375 C14.05672874 20.43830127 14.04567488 24.41255528 14.0234375 28.43359375 C14.02630768 29.58110611 14.02917786 30.72861847 14.03213501 31.91090393 C14.03417081 34.330663 14.02867493 36.7504387 14.01611328 39.17016602 C14.00006844 42.85926409 14.01597184 46.54726415 14.03515625 50.23632812 C14.03317345 52.5937524 14.029329 54.951176 14.0234375 57.30859375 C14.03254654 58.95268471 14.03254654 58.95268471 14.0418396 60.62998962 C13.96176826 69.41826698 12.44543947 76.26361599 6.37109375 82.8984375 C0.50936803 88.06514876 -6.4361218 89.76485254 -14.07421875 89.65234375 C-20.10700943 89.08901016 -26.04729382 85.6209493 -30.375 81.4375 C-34.64363713 75.38659686 -36.45563503 69.83052466 -36.56787109 62.4387207 C-36.59196548 60.98614616 -36.59196548 60.98614616 -36.61654663 59.50422668 C-36.66141353 55.08526642 -36.70206025 50.66644969 -36.72509766 46.24731445 C-36.7416362 43.92462123 -36.76889814 41.60197847 -36.80712891 39.27954102 C-36.86220766 35.91135552 -36.88381975 32.54435789 -36.8984375 29.17578125 C-36.92110687 28.14939041 -36.94377625 27.12299957 -36.96713257 26.06550598 C-36.94317187 17.79165727 -34.66614283 11.39448097 -29.34765625 5 C-28.71730469 4.484375 -28.08695313 3.96875 -27.4375 3.4375 C-26.80972656 2.90125 -26.18195313 2.365 -25.53515625 1.8125 C-18.3585231 -2.75562815 -7.78334148 -3.54202845 0 0 Z " fill="#FDFDFD" transform="translate(232.375,231.5625)"/>
<path d="M0 0 C4.19893204 3.02814548 6.97294479 7.04354584 9.26953125 11.63671875 C9.36223899 14.01719377 9.39538657 16.36808155 9.38305664 18.74853516 C9.38320267 19.480345 9.38334869 20.21215485 9.38349915 20.96614075 C9.38280128 23.39021751 9.37501479 25.81421787 9.3671875 28.23828125 C9.36532287 29.9169409 9.36389918 31.59560109 9.36289978 33.27426147 C9.35907813 37.69658913 9.34925084 42.11888403 9.3381958 46.54119873 C9.32797411 51.0522009 9.32340053 55.56320834 9.31835938 60.07421875 C9.30762827 68.92839982 9.29055606 77.78255656 9.26953125 86.63671875 C5.79477254 85.26551352 2.44359917 83.76536613 -0.91796875 82.13671875 C-9.25222106 78.37856784 -17.03175052 77.55025908 -26.0703125 77.08984375 C-26.90429565 77.04553223 -27.73827881 77.0012207 -28.59753418 76.95556641 C-30.64173867 76.84724479 -32.6860901 76.74170216 -34.73046875 76.63671875 C-34.82344849 68.56076382 -34.89437435 60.48503527 -34.93771744 52.40867615 C-34.95852772 48.65783686 -34.98672342 44.90736573 -35.03222656 41.15673828 C-35.07592125 37.53219013 -35.09965511 33.90799448 -35.10997772 30.28320312 C-35.11732707 28.90537981 -35.13167821 27.5275742 -35.15338898 26.14990234 C-35.29142961 17.02133476 -34.98516642 10.4919801 -28.765625 3.39453125 C-19.54272602 -4.23947226 -10.89431036 -5.9875816 0 0 Z " fill="#FDFDFD" transform="translate(429.73046875,192.36328125)"/>
<path d="M0 0 C1.69168304 0.00323273 1.69168304 0.00323273 3.4175415 0.00653076 C19.77418723 0.05670363 35.8048946 0.3644897 51.9375 3.3125 C53.08154297 3.51649414 54.22558594 3.72048828 55.40429688 3.93066406 C118.00887651 15.36323881 181.63520286 43.22061098 226.375 89.75 C228.10815598 91.48315598 229.93938648 93.04456047 231.8125 94.625 C236.6358319 98.80152494 240.76001536 103.50146319 244.9375 108.3125 C245.87614983 109.37643643 246.8149588 110.44023247 247.75390625 111.50390625 C286.67044908 155.90300701 312.3522576 210.28496635 322.9375 268.3125 C323.13504883 269.36469727 323.33259766 270.41689453 323.53613281 271.50097656 C329.98167857 307.35762143 329.75103444 346.53366616 322.9375 382.3125 C322.61604004 384.03049805 322.61604004 384.03049805 322.28808594 385.78320312 C309.65081084 451.37930646 275.84305251 520.4350563 223.55859375 563.94921875 C221.20121561 565.93168856 219.0805702 568.10245886 216.9375 570.3125 C216.2775 569.9825 215.6175 569.6525 214.9375 569.3125 C215.70827881 568.55219482 216.47905762 567.79188965 217.27319336 567.00854492 C220.18036025 564.13806712 223.08050155 561.2605736 225.97875977 558.38110352 C227.22495343 557.14485758 228.47294902 555.91042495 229.72290039 554.67797852 C237.28740971 547.21663538 244.40872077 539.71216284 250.9375 531.3125 C251.49751709 530.61165283 252.05753418 529.91080566 252.63452148 529.1887207 C265.78980299 512.70008537 277.24508283 495.04607959 286.9375 476.3125 C287.41574219 475.38872559 287.89398437 474.46495117 288.38671875 473.51318359 C304.5239408 441.96989256 314.6666556 407.88627282 320.125 372.9375 C320.29209473 371.86798096 320.45918945 370.79846191 320.63134766 369.6965332 C322.79014589 355.31973736 323.17738785 341.13801438 323.1875 326.625 C323.18850708 325.6221698 323.18951416 324.6193396 323.19055176 323.58612061 C323.18014694 308.25707505 322.4871344 293.45248487 319.9375 278.3125 C319.64296366 276.38044666 319.35002157 274.44814967 319.05859375 272.515625 C314.46005119 243.14191266 305.41297476 215.2467789 292.9375 188.3125 C292.54191895 187.4580127 292.14633789 186.60352539 291.73876953 185.72314453 C279.37947165 159.3624763 263.2735229 135.06552577 243.9375 113.3125 C243.28458984 112.57346436 242.63167969 111.83442871 241.95898438 111.07299805 C230.27668965 97.95345343 217.99046498 84.91556928 203.9375 74.3125 C202.63290631 73.29321126 201.32963347 72.27223075 200.02734375 71.25 C163.23610329 42.52483865 121.99835352 23.23626825 76.9375 11.3125 C76.10508789 11.08578613 75.27267578 10.85907227 74.41503906 10.62548828 C59.74496354 6.66236144 45.05489114 4.69505717 29.9375 3.3125 C28.47884521 3.16675537 28.47884521 3.16675537 26.99072266 3.01806641 C17.67800702 2.17444217 8.38650069 2.16027694 -0.95605469 2.18212891 C-3.68950917 2.18750395 -6.42280039 2.18214494 -9.15625 2.17578125 C-21.03191112 2.17021651 -21.03191112 2.17021651 -32.8659668 3.09204102 C-36.60100092 3.4669144 -40.31228684 3.3739789 -44.0625 3.3125 C-44.0625 2.9825 -44.0625 2.6525 -44.0625 2.3125 C-29.35137873 0.39670955 -14.82566629 -0.05098478 0 0 Z " fill="#BCD0F5" transform="translate(326.0625,-0.31250000000000006)"/>
<path d="M0 0 C0.66 0.33 1.32 0.66 2 1 C-6.58 9.58 -15.16 18.16 -24 27 C-24.66 26.67 -25.32 26.34 -26 26 C-12.93177597 11.63690622 -12.93177597 11.63690622 -6.65625 6.3984375 C-4.28994611 4.40047337 -2.15483643 2.22217507 0 0 Z " fill="#DDE9F9" transform="translate(110,80)"/>
</svg>
