<?xml version="1.0" encoding="UTF-8"?>
<svg version="1.1" xmlns="http://www.w3.org/2000/svg" width="653" height="650">
<path d="M0 0 C1.69168304 0.00323273 1.69168304 0.00323273 3.4175415 0.00653076 C19.77418723 0.05670363 35.8048946 0.3644897 51.9375 3.3125 C53.08154297 3.51649414 54.22558594 3.72048828 55.40429688 3.93066406 C118.00887651 15.36323881 181.63520286 43.22061098 226.375 89.75 C228.10815598 91.48315598 229.93938648 93.04456047 231.8125 94.625 C236.6358319 98.80152494 240.76001536 103.50146319 244.9375 108.3125 C245.87614983 109.37643643 246.8149588 110.44023247 247.75390625 111.50390625 C286.67044908 155.90300701 312.3522576 210.28496635 322.9375 268.3125 C323.13504883 269.36469727 323.33259766 270.41689453 323.53613281 271.50097656 C329.98167857 307.35762143 329.75103444 346.53366616 322.9375 382.3125 C322.72319336 383.45783203 322.50888672 384.60316406 322.28808594 385.78320312 C309.72411196 450.9988235 276.09801194 520.40337295 223.9453125 563.609375 C221.42769438 565.74494212 219.07783689 568.03535455 216.6875 570.3125 C159.31744845 623.75708395 78.31999651 650.89132978 0.875 650.625 C-0.81668304 650.62176727 -0.81668304 650.62176727 -2.5425415 650.61846924 C-18.89918723 650.56829637 -34.9298946 650.2605103 -51.0625 647.3125 C-52.77856445 647.00650879 -52.77856445 647.00650879 -54.52929688 646.69433594 C-117.13387651 635.26176119 -180.76020286 607.40438902 -225.5 560.875 C-227.23315598 559.14184402 -229.06438648 557.58043953 -230.9375 556 C-235.76136121 551.82177987 -239.87328664 547.11492641 -244.0625 542.3125 C-245.0629195 541.19712442 -246.06427146 540.08258469 -247.06640625 538.96875 C-286.13432116 495.19457513 -311.57094413 439.82645085 -322.0625 382.3125 C-322.35882324 380.7342041 -322.35882324 380.7342041 -322.66113281 379.12402344 C-329.10667857 343.26737857 -328.87603444 304.09133384 -322.0625 268.3125 C-321.84819336 267.16716797 -321.63388672 266.02183594 -321.41308594 264.84179688 C-308.84911196 199.6261765 -275.22301194 130.22162705 -223.0703125 87.015625 C-220.55269438 84.88005788 -218.20283689 82.58964545 -215.8125 80.3125 C-158.44244845 26.86791605 -77.44499651 -0.26632978 0 0 Z " fill="#F0B9F4" transform="translate(326.0625,-0.31250000000000006)"/>
<path d="M0 0 C10.64170694 8.98739076 14.16160787 18.28995062 16.05078125 31.83203125 C16.28113586 33.36353191 16.51322882 34.89477185 16.74682617 36.42578125 C17.45469658 41.1232241 18.12738249 45.82526563 18.79510498 50.52856445 C19.36686227 54.546393 19.94494787 58.56328505 20.52392578 62.58007812 C22.35030558 75.25945166 24.17238741 87.93938887 25.96191406 100.62402344 C26.06941451 101.38501972 26.17691496 102.14601601 26.287673 102.93007278 C26.79891359 106.54926552 27.30882375 110.1686343 27.8160553 113.78839111 C27.99704269 115.07122986 28.17803009 116.3540686 28.36450195 117.67578125 C28.52183304 118.79662109 28.67916412 119.91746094 28.84126282 121.07226562 C29.25214111 123.7634468 29.74070467 126.41841056 30.30078125 129.08203125 C30.38324097 128.48562332 30.46570068 127.88921539 30.55065918 127.2747345 C32.53791758 112.91231464 34.54810628 98.5532499 36.58639526 84.19798279 C37.52404572 77.59139358 38.45509944 70.9840701 39.36816406 64.37402344 C40.20560766 58.31426644 41.06350875 52.2577389 41.9362793 46.20297241 C42.25992434 43.93287683 42.57629524 41.66173105 42.88500977 39.38955688 C46.72928924 11.18014424 46.72928924 11.18014424 57.3046875 1.546875 C67.03263422 -5.59202915 76.53287416 -6.76967252 88.30078125 -5.91796875 C97.71433158 -3.7185411 104.87606226 1.54263463 110.17578125 9.51953125 C118.30665043 23.3179311 115.11313957 38.32772577 112.921875 53.44140625 C112.67102988 55.21772607 112.42097204 56.99415722 112.17164612 58.77069092 C111.64354766 62.52115624 111.10985893 66.27076453 110.5715332 70.01977539 C109.73047502 75.87711839 108.9026301 81.73628512 108.07617188 87.59570312 C105.78135471 103.84103962 103.45518196 120.08175425 101.0859375 136.31640625 C100.49000298 140.40482003 99.89477108 144.49333446 99.30078125 148.58203125 C99.16306305 149.52924042 99.02534485 150.47644958 98.88345337 151.45236206 C96.26354256 169.55754044 94.14028935 187.71561459 92.49655151 205.93623352 C92.35327147 207.5066967 92.19993813 209.0762516 92.040802 210.64518738 C91.28628932 218.61121232 91.13860192 226.54195402 91.10155106 234.53568077 C91.08952629 236.9063364 91.07002068 239.27682823 91.0484314 241.64741516 C90.98759265 248.37906259 90.93300593 255.1106857 90.89941406 261.8425293 C90.87819861 265.9868225 90.8426991 270.13080125 90.79865646 274.27491188 C90.78471886 275.83220481 90.77582581 277.38955317 90.77260208 278.94690514 C90.69637448 312.24253498 79.76506438 342.45044362 57.30078125 367.08203125 C56.69621094 367.7575 56.09164062 368.43296875 55.46875 369.12890625 C35.38256044 390.4368835 4.801107 402.29655642 -24.00390625 403.3203125 C-47.81599541 403.79642675 -71.88209103 399.11065088 -91.69921875 385.08203125 C-92.63507813 384.4271875 -93.5709375 383.77234375 -94.53515625 383.09765625 C-118.05622996 366.04638945 -134.71891435 343.68724403 -142.88671875 315.64453125 C-143.13703857 314.78649902 -143.3873584 313.9284668 -143.64526367 313.04443359 C-147.61944637 298.82231614 -147.99693913 285.2395275 -147.96484375 270.5703125 C-147.96619338 268.38941912 -147.9681364 266.20852603 -147.97064209 264.02763367 C-147.97357742 259.47631949 -147.96934587 254.92508424 -147.95996094 250.3737793 C-147.94854698 244.55694225 -147.95514836 238.74028941 -147.96710587 232.92345905 C-147.97435012 228.42718632 -147.9720251 223.93095692 -147.96685028 219.43468285 C-147.96552194 217.29019333 -147.96713273 215.14569981 -147.97180939 213.00121498 C-147.97691919 210.00111151 -147.96910293 207.00130239 -147.95800781 204.0012207 C-147.96205627 203.12670761 -147.96610474 202.25219452 -147.97027588 201.35118103 C-147.89710846 190.60850496 -145.44989713 182.58145679 -138.69921875 174.08203125 C-135.91203366 171.33546088 -133.00701385 169.16283227 -129.69921875 167.08203125 C-129.05855469 166.64890625 -128.41789062 166.21578125 -127.7578125 165.76953125 C-120.38991391 161.61697784 -110.87646258 161.98329436 -102.69921875 163.08203125 C-97.1679366 164.65328645 -92.47008386 166.90145451 -87.69921875 170.08203125 C-87.78171875 169.29828125 -87.86421875 168.51453125 -87.94921875 167.70703125 C-87.27810014 157.97581142 -81.80357912 149.76699528 -74.75 143.29296875 C-67.02237745 137.12908908 -59.8698894 135.62043521 -50.19921875 135.89453125 C-49.28140625 135.90806641 -48.36359375 135.92160156 -47.41796875 135.93554688 C-45.17775072 135.97055028 -42.93881281 136.01964256 -40.69921875 136.08203125 C-40.81561707 135.27168427 -40.93201538 134.46133728 -41.05194092 133.62643433 C-42.17061994 125.83643585 -43.28780791 118.04622546 -44.40348434 110.25579643 C-44.97655424 106.25456733 -45.55012163 102.25341111 -46.125 98.25244141 C-47.34443827 89.76343543 -48.55676796 81.27349342 -49.75279999 72.78115463 C-50.26963759 69.11278227 -50.78982586 65.44497372 -51.31958008 61.77844238 C-51.90028311 57.75880703 -52.46444127 53.73701061 -53.02734375 49.71484375 C-53.19788269 48.55201874 -53.36842163 47.38919373 -53.54412842 46.19113159 C-55.35245589 33.0443557 -57.06402131 19.58510737 -48.7109375 8.42578125 C-36.2758445 -6.17847304 -16.72178895 -11.88190792 0 0 Z " fill="#262123" transform="translate(340.69921875,127.91796875)"/>
<path d="M0 0 C1.69168304 0.00323273 1.69168304 0.00323273 3.4175415 0.00653076 C19.77418723 0.05670363 35.8048946 0.3644897 51.9375 3.3125 C53.08154297 3.51649414 54.22558594 3.72048828 55.40429688 3.93066406 C118.00887651 15.36323881 181.63520286 43.22061098 226.375 89.75 C228.10815598 91.48315598 229.93938648 93.04456047 231.8125 94.625 C236.6358319 98.80152494 240.76001536 103.50146319 244.9375 108.3125 C245.87614983 109.37643643 246.8149588 110.44023247 247.75390625 111.50390625 C286.67044908 155.90300701 312.3522576 210.28496635 322.9375 268.3125 C323.13504883 269.36469727 323.33259766 270.41689453 323.53613281 271.50097656 C329.98167857 307.35762143 329.75103444 346.53366616 322.9375 382.3125 C322.72319336 383.45783203 322.50888672 384.60316406 322.28808594 385.78320312 C309.72411196 450.9988235 276.09801194 520.40337295 223.9453125 563.609375 C221.42769438 565.74494212 219.07783689 568.03535455 216.6875 570.3125 C159.31744845 623.75708395 78.31999651 650.89132978 0.875 650.625 C-0.81668304 650.62176727 -0.81668304 650.62176727 -2.5425415 650.61846924 C-18.89918723 650.56829637 -34.9298946 650.2605103 -51.0625 647.3125 C-52.77856445 647.00650879 -52.77856445 647.00650879 -54.52929688 646.69433594 C-117.13387651 635.26176119 -180.76020286 607.40438902 -225.5 560.875 C-227.23315598 559.14184402 -229.06438648 557.58043953 -230.9375 556 C-235.76136121 551.82177987 -239.87328664 547.11492641 -244.0625 542.3125 C-245.0629195 541.19712442 -246.06427146 540.08258469 -247.06640625 538.96875 C-286.13432116 495.19457513 -311.57094413 439.82645085 -322.0625 382.3125 C-322.35882324 380.7342041 -322.35882324 380.7342041 -322.66113281 379.12402344 C-329.10667857 343.26737857 -328.87603444 304.09133384 -322.0625 268.3125 C-321.84819336 267.16716797 -321.63388672 266.02183594 -321.41308594 264.84179688 C-308.84911196 199.6261765 -275.22301194 130.22162705 -223.0703125 87.015625 C-220.55269438 84.88005788 -218.20283689 82.58964545 -215.8125 80.3125 C-158.44244845 26.86791605 -77.44499651 -0.26632978 0 0 Z M-60.25 27.9375 C-60.89494415 28.06366699 -61.53988831 28.18983398 -62.20437622 28.31982422 C-75.80269685 31.00173768 -88.94417673 34.85695009 -102.0625 39.3125 C-102.78791992 39.5487207 -103.51333984 39.78494141 -104.26074219 40.02832031 C-136.72129003 50.61010131 -168.0003836 69.48444983 -194.0625 91.3125 C-195.04476562 92.11042969 -196.02703125 92.90835938 -197.0390625 93.73046875 C-204.70790818 100.04848663 -211.83033701 106.87118999 -218.875 113.875 C-219.74616455 114.73697998 -220.6173291 115.59895996 -221.51489258 116.48706055 C-227.45256145 122.4529637 -232.84360734 128.71248498 -238.0625 135.3125 C-238.91799438 136.3789978 -238.91799438 136.3789978 -239.79077148 137.46704102 C-272.9703576 179.04326203 -295.02918378 229.42531373 -302.75 282.0625 C-302.92934082 283.2848938 -302.92934082 283.2848938 -303.11230469 284.53198242 C-305.06514127 298.74665159 -305.33760369 312.98787307 -305.375 327.3125 C-305.37761841 328.27760498 -305.38023682 329.24270996 -305.38293457 330.23706055 C-305.3878572 347.26794699 -304.03263759 363.52125028 -301.0625 380.3125 C-300.79249674 382.02836761 -300.52412232 383.74449278 -300.2578125 385.4609375 C-289.48401049 450.23602459 -250.64752292 517.05669671 -199.02001953 557.93774414 C-196.1382178 560.25170199 -193.3302025 562.63561332 -190.51953125 565.03515625 C-184.37453152 570.20073926 -177.89013063 574.77072643 -171.1875 579.1875 C-170.60601196 579.57268799 -170.02452393 579.95787598 -169.42541504 580.35473633 C-119.67090267 613.22674335 -62.20255538 630.51412747 -2.5625 630.5625 C-1.80438019 630.56317474 -1.04626038 630.56384949 -0.26516724 630.56454468 C28.40200384 630.52449261 57.58571036 627.19821367 84.9375 618.3125 C86.67834144 617.77720072 88.41923141 617.24205923 90.16015625 616.70703125 C130.57845439 604.01968825 168.48083346 583.10445558 199.72265625 554.34375 C201.69589244 552.53408012 203.70857813 550.79410109 205.75 549.0625 C214.47920968 541.42885915 222.57524108 533.13348395 229.76953125 524.0390625 C232.04950022 521.17164207 234.42636085 518.40445879 236.8125 515.625 C260.67026625 487.02531747 277.48675249 452.54556926 288.9375 417.3125 C289.1962793 416.54164063 289.45505859 415.77078125 289.72167969 414.9765625 C294.76217979 399.79756599 297.2437495 384.17934836 299.73828125 368.42578125 C299.84529358 367.75658157 299.95230591 367.0873819 300.06256104 366.39790344 C301.39705031 357.76426918 302.09270616 349.22010659 302.10546875 340.484375 C302.10983948 339.58164352 302.11421021 338.67891205 302.11871338 337.74882507 C302.37371401 264.933237 283.57673695 197.35121423 237.9375 139.3125 C237.15632812 138.31734375 236.37515625 137.3221875 235.5703125 136.296875 C222.17816161 119.61626001 206.95310825 103.31370201 189.9375 90.3125 C188.65286643 89.30046772 187.3690783 88.28736177 186.0859375 87.2734375 C160.64746799 67.32047972 131.72665049 50.44427859 100.9375 40.3125 C99.62835651 39.83446833 98.32114885 39.35111157 97.015625 38.86328125 C80.80551824 32.83818445 64.43803633 29.22581369 47.375 26.5625 C46.34824661 26.40199661 46.34824661 26.40199661 45.30075073 26.23825073 C40.85231578 25.54986525 36.39900661 24.91157926 31.9375 24.3125 C31.06609375 24.19543701 30.1946875 24.07837402 29.296875 23.95776367 C20.2565142 22.94898732 11.11930604 23.12644923 2.03515625 23.12719727 C-0.89598565 23.12503069 -3.82673786 23.10688194 -6.7578125 23.08789062 C-24.82385666 23.03200009 -42.51539607 24.41556591 -60.25 27.9375 Z " fill="#FDFDFD" transform="translate(326.0625,-0.31250000000000006)"/>
<path d="M0 0 C1.46960678 0.00273422 1.46960678 0.00273422 2.96890259 0.00552368 C18.44215 0.05379748 33.5296677 0.70750015 48.8125 3.3125 C49.91062012 3.49474121 51.00874023 3.67698242 52.14013672 3.86474609 C64.60766198 5.9770784 76.80322843 8.4419807 88.75439453 12.61035156 C91.07362453 13.4015859 93.40731959 14.13578903 95.74609375 14.8671875 C108.21503237 18.80968318 120.05509511 23.59446595 131.8125 29.3125 C132.71194336 29.7465918 133.61138672 30.18068359 134.53808594 30.62792969 C154.95975564 40.58572116 174.27032961 52.84425406 191.8125 67.3125 C192.62630127 67.97620605 192.62630127 67.97620605 193.45654297 68.65332031 C201.96666952 75.6356181 209.88031412 83.18178554 217.6875 90.9375 C218.98880859 92.22491089 218.98880859 92.22491089 220.31640625 93.53833008 C226.23622842 99.48704877 231.60825294 105.73248907 236.8125 112.3125 C237.38291016 113.0235791 237.95332031 113.7346582 238.54101562 114.46728516 C288.05338792 176.51151565 311.44912419 257.1449969 303.0546875 336.125 C302.20305891 343.22922511 301.07227198 350.27049737 299.8125 357.3125 C299.65765137 358.24304199 299.50280273 359.17358398 299.34326172 360.13232422 C288.36249676 426.00475367 250.18507199 493.36086468 197.578125 535.09375 C195.78461476 536.53261132 194.02132565 538.01030595 192.296875 539.53125 C177.4931669 552.51695886 160.24843479 563.21648671 142.8125 572.3125 C142.18005371 572.64652832 141.54760742 572.98055664 140.89599609 573.32470703 C97.64945329 596.04893758 50.22114555 607.52277619 1.375 607.5625 C0.61915619 607.56317474 -0.13668762 607.56384949 -0.91543579 607.56454468 C-23.85725238 607.53241875 -46.30491263 605.1890967 -68.65869141 599.90917969 C-70.90769102 599.37852174 -73.1604856 598.87576978 -75.41796875 598.3828125 C-121.6749789 587.72625359 -166.1289089 563.42032779 -200.97265625 531.34375 C-202.94589244 529.53408012 -204.95857813 527.79410109 -207 526.0625 C-215.72920968 518.42885915 -223.82524108 510.13348395 -231.01953125 501.0390625 C-233.29950022 498.17164207 -235.67636085 495.40445879 -238.0625 492.625 C-263.66041373 461.93930217 -280.43984486 425.18831727 -292.1875 387.3125 C-292.52998779 386.22727051 -292.87247559 385.14204102 -293.2253418 384.02392578 C-295.87971674 375.24937301 -297.55617108 366.45965581 -298.99780273 357.42480469 C-299.37701307 355.04989255 -299.7685512 352.67726015 -300.16210938 350.3046875 C-300.41477589 348.76053323 -300.6667533 347.21626601 -300.91796875 345.671875 C-301.08826851 344.63398834 -301.08826851 344.63398834 -301.26200867 343.57513428 C-302.64206146 334.8829486 -303.34282433 326.28446969 -303.35546875 317.484375 C-303.3596582 316.58078247 -303.36384766 315.67718994 -303.36816406 314.74621582 C-303.37785877 311.85159852 -303.37796864 308.9571307 -303.375 306.0625 C-303.37472809 305.07584351 -303.37445618 304.08918701 -303.37417603 303.07263184 C-303.35024827 284.25891023 -302.61104799 265.94465343 -298.64697266 247.49902344 C-298.13430093 245.05933799 -297.66714502 242.61271213 -297.19921875 240.1640625 C-288.29780415 194.97927715 -267.57957684 152.41826653 -239.1875 116.3125 C-238.40632813 115.31734375 -237.62515625 114.3221875 -236.8203125 113.296875 C-223.43071109 96.61943552 -208.20625402 80.30408896 -191.1875 67.3125 C-189.87956223 66.28858521 -188.5723261 65.26377379 -187.265625 64.23828125 C-160.1547979 43.08655982 -129.91340683 26.13732482 -97.1875 15.3125 C-96.34670898 15.02568359 -95.50591797 14.73886719 -94.63964844 14.44335938 C-82.79265077 10.43172387 -70.82912683 7.41479047 -58.5625 5 C-57.34981445 4.75757568 -56.13712891 4.51515137 -54.88769531 4.26538086 C-36.69848341 0.8461472 -18.47520796 -0.0720231 0 0 Z M-45.1875 16.3125 C-46.20408691 16.47878906 -47.22067383 16.64507812 -48.26806641 16.81640625 C-78.82119135 21.81979896 -107.86958411 31.76982596 -135.1875 46.3125 C-135.88762207 46.67923828 -136.58774414 47.04597656 -137.30908203 47.42382812 C-172.00482716 65.67093413 -205.92753088 92.78255093 -228.98242188 124.65869141 C-230.23768054 126.38136608 -231.52868851 128.07216759 -232.828125 129.76171875 C-262.50847095 168.70885134 -281.75977153 215.76130823 -288.1875 264.3125 C-288.46400391 266.18808594 -288.46400391 266.18808594 -288.74609375 268.1015625 C-292.21253307 294.32644126 -291.55795409 322.27639861 -287.1875 348.3125 C-287.02652832 349.33456543 -286.86555664 350.35663086 -286.69970703 351.40966797 C-278.7264662 401.29412287 -257.19071429 448.32990971 -225.1875 487.3125 C-224.66075684 487.95638672 -224.13401367 488.60027344 -223.59130859 489.26367188 C-211.55518194 503.85429656 -198.25917578 517.84003038 -183.1875 529.3125 C-181.90398619 530.32299838 -180.62151794 531.33482559 -179.33984375 532.34765625 C-152.20050744 553.63946433 -122.61197467 568.79537563 -90.1875 580.3125 C-89.02992188 580.72371094 -87.87234375 581.13492188 -86.6796875 581.55859375 C-83.53563955 582.59090377 -80.38946463 583.47437892 -77.1875 584.3125 C-76.341875 584.53502441 -75.49625 584.75754883 -74.625 584.98681641 C-0.93344623 604.04113449 78.02869952 594.79850061 144.3684082 556.57495117 C146.19125432 555.50037874 148.00391118 554.41087587 149.8125 553.3125 C150.94042969 552.63058594 152.06835938 551.94867187 153.23046875 551.24609375 C166.329759 543.14239133 179.30765468 534.06756732 190.51171875 523.47265625 C192.4984002 521.60740185 194.52388254 519.82334415 196.5859375 518.04296875 C207.26462012 508.73153467 217.14624191 498.5183209 225.8125 487.3125 C226.68806651 486.22491892 227.56579085 485.13907257 228.4453125 484.0546875 C250.71603124 456.44884572 266.72281065 424.91161832 277.8125 391.3125 C278.10640625 390.42626953 278.4003125 389.54003906 278.703125 388.62695312 C287.4869065 361.59196526 291.25314528 332.62382167 291.125 304.25 C291.12317719 303.40354919 291.12135437 302.55709839 291.11947632 301.68499756 C290.87391688 233.55065112 266.24125677 165.41131213 220.8125 114.3125 C220.31741943 113.73346924 219.82233887 113.15443848 219.31225586 112.55786133 C214.21436842 106.61972058 208.77773011 101.03680046 203.25 95.5 C202.76517151 95.01383209 202.28034302 94.52766418 201.78082275 94.02676392 C194.22495042 86.4753993 186.4628257 79.58865753 177.8125 73.3125 C176.84957031 72.56613281 175.88664062 71.81976563 174.89453125 71.05078125 C153.1247888 54.21668891 128.49817294 41.1098997 102.8125 31.3125 C101.65355225 30.86318115 101.65355225 30.86318115 100.47119141 30.40478516 C68.68642443 18.21185493 35.03112018 13.08390194 1.125 13.0625 C0.16441681 13.06182526 -0.79616638 13.06115051 -1.78585815 13.06045532 C-16.47467655 13.07683252 -30.70179757 13.72731228 -45.1875 16.3125 Z " fill="#262223" transform="translate(324.1875,22.6875)"/>
<path d="M0 0 C1.44437187 -0.0098568 1.44437187 -0.0098568 2.91792297 -0.01991272 C6.11878536 -0.03968928 9.31960051 -0.05132391 12.52050781 -0.0612793 C14.16297863 -0.06739259 14.16297863 -0.06739259 15.83863068 -0.07362938 C21.64485995 -0.09451815 27.45106546 -0.10880231 33.25732422 -0.11816406 C39.2287609 -0.12917681 45.1998196 -0.16350906 51.1711235 -0.20333576 C55.78170413 -0.22962131 60.39219682 -0.23786693 65.00284576 -0.24144554 C67.20184097 -0.24628822 69.40083287 -0.25783518 71.59975433 -0.27648354 C90.92586723 -0.43006696 107.03352741 1.53598729 121.84863281 15.21606445 C133.01729743 26.8966262 137.0896045 41.01219564 136.93457031 56.85668945 C135.83143739 86.47785113 123.59120443 113.44129081 102.26269531 133.91137695 C88.92224846 145.8151603 73.01341867 153.87822244 55.72363281 158.17700195 C54.46292969 158.49540039 53.20222656 158.81379883 51.90332031 159.1418457 C29.5911455 164.03249412 6.20506898 161.54590705 -14.27636719 151.17700195 C-15.37851562 150.6252832 -16.48066406 150.07356445 -17.61621094 149.50512695 C-43.70820732 135.82942207 -61.76412535 111.29307091 -70.65136719 83.55200195 C-75.5456485 67.3853133 -75.53325138 51.95351599 -75.27636719 35.17700195 C-74.44492188 35.59852539 -73.61347656 36.02004883 -72.75683594 36.4543457 C-71.12681641 37.27612305 -71.12681641 37.27612305 -69.46386719 38.11450195 C-67.84544922 38.93241211 -67.84544922 38.93241211 -66.19433594 39.7668457 C-57.7795429 43.83343243 -47.51146137 43.22359137 -38.71386719 40.48950195 C-34.03494504 38.73254464 -30.88109825 36.59201033 -27.27636719 33.17700195 C-26.61636719 33.17700195 -25.95636719 33.17700195 -25.27636719 33.17700195 C-25.27636719 32.51700195 -25.27636719 31.85700195 -25.27636719 31.17700195 C-21.70107213 32.36876697 -21.41579141 33.17065282 -19.52636719 36.30200195 C-11.64406422 48.49252444 -1.31129713 54.35992197 12.71582031 57.4309082 C18.01349768 58.48203466 23.32959762 58.97268244 28.72363281 59.17700195 C27.36382295 62.22324269 25.80955311 64.25227625 23.47363281 66.61450195 C16.17331862 74.73781607 11.47825789 86.36926181 11.45800781 97.25512695 C11.45609436 97.90777527 11.45418091 98.56042358 11.45220947 99.23284912 C11.4508573 100.60095611 11.45448559 101.96907636 11.46289062 103.3371582 C11.47367446 105.43510371 11.46292779 107.53220652 11.45019531 109.63012695 C11.45151572 110.96346218 11.45407566 112.29679687 11.45800781 113.63012695 C11.4613916 115.4423877 11.4613916 115.4423877 11.46484375 117.29125977 C11.42428592 120.30506948 11.42428592 120.30506948 13.72363281 122.17700195 C17.79992809 122.65406987 17.79992809 122.65406987 21.3918457 120.99121094 C23.20204464 118.52529191 23.0924176 116.87909382 23.09472656 113.8371582 C23.10898682 112.77964355 23.12324707 111.72212891 23.13793945 110.63256836 C23.14559326 109.51285645 23.15324707 108.39314453 23.16113281 107.23950195 C23.52811492 92.80350936 25.65799929 82.11499038 35.72363281 71.17700195 C44.97692393 63.14684702 53.26488914 59.95178658 65.29785156 58.8996582 C69.10679448 58.09617538 70.41183181 57.25175465 72.72363281 54.17700195 C73.3904922 51.63373087 73.3904922 51.63373087 72.72363281 49.17700195 C69.66297503 46.22890937 67.46847173 45.80389847 63.28759766 45.80810547 C62.19901459 45.80122208 61.11043152 45.79433868 59.98886108 45.7872467 C58.81594513 45.793405 57.64302917 45.79956329 56.43457031 45.8059082 C53.94107942 45.78851686 51.44758987 45.77093258 48.95410156 45.75317383 C45.0307356 45.74312648 41.10746029 45.7394981 37.18408203 45.74121094 C33.3923057 45.73762341 29.60122252 45.71020436 25.80957031 45.6809082 C24.64879974 45.68909073 23.48802917 45.69727325 22.29208374 45.70570374 C10.8333381 45.60187054 3.20258089 42.44569737 -5.07714844 34.5559082 C-8.03484421 31.35655345 -10.28961845 28.04288386 -12.27636719 24.17700195 C-12.81390625 23.15799805 -12.81390625 23.15799805 -13.36230469 22.1184082 C-15.68365959 17.18800912 -15.69951418 11.508654 -15.27636719 6.17700195 C-11.08955077 -0.38234377 -7.28225229 0.0213947 0 0 Z " fill="#FDFDFD" transform="translate(281.2763671875,356.822998046875)"/>
<path d="M0 0 C5.59845259 4.74651415 8.16359662 9.44304648 9.5090332 16.61132812 C9.63146298 17.26065559 9.75389277 17.90998306 9.88003254 18.57898712 C11.44425913 27.08738211 12.64130474 35.65502554 13.85546875 44.21875 C14.12064278 46.06726729 14.38619062 47.91573099 14.65208435 49.7641449 C15.21241206 53.66428962 15.77028193 57.56477468 16.32623291 61.46554565 C17.19209966 67.53848201 18.06595476 73.61025333 18.94091797 79.68188477 C21.3034816 96.08886221 23.65905543 112.4966891 25.94862366 128.91403198 C26.67047051 134.08979156 27.40215957 139.26414704 28.13418579 144.43847656 C28.61597049 147.87312847 29.0839158 151.30948645 29.55151367 154.74609375 C29.83829411 156.77744777 30.12576026 158.80870516 30.4140625 160.83984375 C30.53228867 161.74165878 30.65051483 162.64347382 30.77232361 163.57261658 C30.89080154 164.38646317 31.00927948 165.20030975 31.13134766 166.03881836 C31.27571762 167.08724159 31.27571762 167.08724159 31.42300415 168.15684509 C32.15182997 170.48500549 33.08279245 171.51042498 35 173 C38.04211431 173.4167552 38.04211431 173.4167552 41 173 C43.34850262 170.65149738 43.44257324 169.67760467 44.0078125 166.46484375 C44.18530029 165.46001953 44.36278809 164.45519531 44.5456543 163.41992188 C44.73683838 162.27072266 44.92802246 161.12152344 45.125 159.9375 C45.33745361 158.68130859 45.54990723 157.42511719 45.76879883 156.13085938 C49.01253696 136.59720646 51.5572158 116.94885157 54.28123474 97.33802795 C56.2678623 83.04489626 58.27336325 68.75447563 60.31753635 54.4694519 C60.86853733 50.61811917 61.41655718 46.76642107 61.95687866 42.91357422 C62.46684203 39.27756763 62.98483045 35.64279194 63.50876999 32.0087738 C63.79134461 30.03467544 64.06569143 28.05940476 64.3397522 26.08410645 C65.93305873 15.13487234 67.66788627 6.68285811 76 -1 C81.37618104 -5.00087892 87.55980413 -4.65553576 94 -4 C97.4375 -2.75 97.4375 -2.75 100 -1 C100.845625 -0.484375 101.69125 0.03125 102.5625 0.5625 C107.07924906 5.07924906 109.90560964 9.74750037 110.09492493 16.2709198 C109.21806235 28.08338483 107.65574925 39.76496488 105.98046875 51.48828125 C105.67709059 53.64268489 105.37422972 55.79716142 105.07185364 57.95170593 C104.27824776 63.59560167 103.47718529 69.23841461 102.67462158 74.88104248 C102.03029297 79.41992217 101.39120462 83.959532 100.75240898 88.49919319 C98.13998309 107.06419763 95.52674498 125.62846946 92.73828125 144.16796875 C89.64141664 164.93401549 87.44344218 185.53063942 86.3125 206.5 C86.18238439 208.79952137 86.05152792 211.09900095 85.91992188 213.3984375 C85.6047927 218.93184209 85.29860702 224.46568042 85 230 C83.85253296 228.8387561 83.85253296 228.8387561 82.68188477 227.65405273 C68.14877059 213.27176013 51.44635243 205.61558832 30.890625 205.48828125 C29.79780212 205.47033005 28.70497925 205.45237885 27.57904053 205.43388367 C24.13606468 205.38030207 20.69322318 205.34605356 17.25 205.3125 C14.89581483 205.27928084 12.54164729 205.24478703 10.1875 205.20898438 C4.45845407 205.12460647 -1.27061045 205.05603938 -7 205 C-7.00142502 204.37518738 -7.00285004 203.75037476 -7.00431824 203.10662842 C-7.02413983 196.55144412 -7.0786781 189.99717547 -7.15258789 183.44238281 C-7.17565886 181.00234568 -7.19013776 178.5622105 -7.19555664 176.12207031 C-7.20492578 172.59639141 -7.24609283 169.07223171 -7.29296875 165.546875 C-7.2890361 164.4713739 -7.28510345 163.3958728 -7.28105164 162.28778076 C-7.44929627 153.3786213 -9.45430835 144.51753862 -15.70605469 137.81591797 C-18.8179126 133.99597659 -19.13762266 130.74249445 -19.703125 125.9453125 C-19.82713181 125.03941879 -19.95113861 124.13352509 -20.0789032 123.20018005 C-20.48837371 120.17733212 -20.86905917 117.15156473 -21.25 114.125 C-21.53381651 111.98662174 -21.81975625 109.84852436 -22.10766602 107.71069336 C-22.57124928 104.26136434 -23.03245299 100.81181341 -23.4858551 97.36112976 C-24.63984167 88.58470918 -25.86789005 79.82095973 -27.13318253 71.06007385 C-27.44832335 68.8772956 -27.76231211 66.6943548 -28.07589722 64.51135254 C-28.17902914 63.79347439 -28.28216106 63.07559624 -28.3884182 62.3359642 C-28.59596124 60.89115297 -28.8035024 59.44634147 -29.01104164 58.00152969 C-29.5230581 54.43895505 -30.03666982 50.87662511 -30.55358887 47.3147583 C-31.13627948 43.29560623 -31.70716053 39.27485157 -32.27734375 35.25390625 C-32.45198654 34.06099472 -32.62662933 32.86808319 -32.80656433 31.63902283 C-35.46916963 12.67837513 -35.46916963 12.67837513 -30.5546875 5.8203125 C-21.90440563 -4.30790697 -11.82308011 -6.84494112 0 0 Z " fill="#FDFDFD" transform="translate(333,139)"/>
<path d="M0 0 C6.26291848 3.75246593 10.45191188 9.47361423 12.5625 16.4375 C12.99613474 20.00141489 13.00698557 23.5339106 12.99609375 27.12109375 C13.0013356 28.13542984 13.00657745 29.14976593 13.01197815 30.19483948 C13.01837874 32.33211353 13.0170869 34.46942289 13.00854492 36.60668945 C13.00003534 39.86148311 13.02882447 43.11452001 13.06054688 46.36914062 C13.06215921 48.45312448 13.06158075 50.53711141 13.05859375 52.62109375 C13.07544472 54.06832069 13.07544472 54.06832069 13.09263611 55.54478455 C13.01396582 63.24142398 11.19107465 68.48035352 6.0625 74.25 C5.2375 74.971875 4.4125 75.69375 3.5625 76.4375 C2.94375 76.994375 2.325 77.55125 1.6875 78.125 C-3.7908918 81.50871258 -10.14365766 82.28537513 -16.4375 81.4375 C-23.04047207 79.5019349 -27.65066046 75.06503117 -31.4375 69.4375 C-34.52114816 63.54691054 -34.90483565 58.63451673 -34.90625 52.04296875 C-34.91386353 51.05557205 -34.92147705 50.06817535 -34.92932129 49.05085754 C-34.94008832 46.96907061 -34.94298927 44.88722981 -34.93847656 42.80541992 C-34.93750606 39.64473874 -34.97913035 36.4865021 -35.0234375 33.32617188 C-35.0286468 31.29427584 -35.03133266 29.26237146 -35.03125 27.23046875 C-35.04764526 26.29784714 -35.06404053 25.36522552 -35.08093262 24.40434265 C-35.00422865 17.00543963 -33.00115122 10.44306477 -27.99475098 4.81584167 C-26.5 3.5 -26.5 3.5 -23.4375 1.4375 C-22.591875 0.839375 -21.74625 0.24125 -20.875 -0.375 C-14.27708472 -2.65427982 -6.46733356 -2.89098533 0 0 Z " fill="#FCFCFC" transform="translate(240.4375,305.5625)"/>
<path d="M0 0 C6.11129397 3.14421646 9.84079383 7.95902964 12.48248291 14.24751282 C13.78328301 18.68122453 13.48647256 23.25775219 13.41796875 27.83984375 C13.41372391 28.91754532 13.40947906 29.99524689 13.40510559 31.10560608 C13.38838719 34.52899746 13.35074683 37.9517882 13.3125 41.375 C13.29744436 43.70376751 13.2837575 46.03254429 13.27148438 48.36132812 C13.24106504 54.05379989 13.1823286 59.74498198 13.125 65.4375 C-2.385 65.7675 -17.895 66.0975 -33.875 66.4375 C-33.99021855 59.49878267 -34.08963299 52.56342591 -34.1496582 45.62451172 C-34.17469708 43.26762605 -34.20873841 40.91081721 -34.25219727 38.55419922 C-34.3133159 35.15312672 -34.34131727 31.7530868 -34.36328125 28.3515625 C-34.38908768 27.30948639 -34.4148941 26.26741028 -34.44148254 25.1937561 C-34.4445004 17.20045541 -32.62665118 10.46031497 -27.0605011 4.49185181 C-19.52211738 -2.45996825 -9.55156547 -3.77205891 0 0 Z " fill="#FBFBFB" transform="translate(299.875,278.5625)"/>
<path d="M0 0 C1.69168304 0.00323273 1.69168304 0.00323273 3.4175415 0.00653076 C19.77418723 0.05670363 35.8048946 0.3644897 51.9375 3.3125 C53.08154297 3.51649414 54.22558594 3.72048828 55.40429688 3.93066406 C118.00887651 15.36323881 181.63520286 43.22061098 226.375 89.75 C228.10815598 91.48315598 229.93938648 93.04456047 231.8125 94.625 C236.6358319 98.80152494 240.76001536 103.50146319 244.9375 108.3125 C245.87614983 109.37643643 246.8149588 110.44023247 247.75390625 111.50390625 C286.67044908 155.90300701 312.3522576 210.28496635 322.9375 268.3125 C323.13504883 269.36469727 323.33259766 270.41689453 323.53613281 271.50097656 C329.98167857 307.35762143 329.75103444 346.53366616 322.9375 382.3125 C322.61604004 384.03049805 322.61604004 384.03049805 322.28808594 385.78320312 C309.71378923 451.05240554 276.0933308 520.25230592 224.00390625 563.56640625 C220.64775783 566.40231994 217.45387988 569.41645217 214.23583984 572.40722656 C211.23429502 575.17988235 208.15836355 577.79822443 204.9375 580.3125 C204.2775 579.9825 203.6175 579.6525 202.9375 579.3125 C204.60325159 577.79066445 206.27015671 576.2700915 207.9375 574.75 C208.865625 573.90308594 209.79375 573.05617188 210.75 572.18359375 C213.05390849 570.09166982 215.39698315 568.051432 217.75390625 566.01953125 C229.10379683 556.10826424 239.72268618 545.23258027 248.9375 533.3125 C249.88356034 532.15236514 250.8330224 530.99499923 251.78515625 529.83984375 C258.75624897 521.34754273 265.07263044 512.60162505 270.9375 503.3125 C271.30407715 502.73628906 271.6706543 502.16007812 272.04833984 501.56640625 C288.54425537 475.45712407 300.6965989 447.70404529 309.9375 418.3125 C310.16808105 417.59900391 310.39866211 416.88550781 310.63623047 416.15039062 C319.5863928 388.44642825 322.12815622 359.40887192 322.17773438 330.48828125 C322.18735969 327.11172069 322.21842626 323.73579142 322.25 320.359375 C322.34926312 300.11948664 320.34343506 280.26534426 316.25 260.4375 C315.9936377 259.18976807 315.73727539 257.94203613 315.47314453 256.65649414 C306.99486578 216.74906964 290.73232011 179.13499754 267.9375 145.3125 C267.30231445 144.36890625 267.30231445 144.36890625 266.65429688 143.40625 C257.46861073 129.89703171 246.99467367 117.3208284 235.9375 105.3125 C235.11507813 104.38695313 234.29265625 103.46140625 233.4453125 102.5078125 C229.18943284 97.73450066 224.9310641 93.21000023 220.03125 89.09765625 C217.61280642 87.03566237 215.3176851 84.86207502 213 82.6875 C179.88774275 52.54802828 137.68820025 29.18367857 94.9375 16.3125 C94.24479004 16.09787109 93.55208008 15.88324219 92.83837891 15.66210938 C35.47301529 -1.99697954 -26.86631159 -2.22857007 -84.70703125 12.9296875 C-87.21311463 13.336978 -88.65482787 12.993336 -91.0625 12.3125 C-79.20256757 9.16833409 -67.34117801 6.18057109 -55.25 4.0625 C-54.40687256 3.91200195 -53.56374512 3.76150391 -52.69506836 3.60644531 C-35.14928114 0.6620217 -17.76817294 -0.06110393 0 0 Z " fill="#BCD1F6" transform="translate(326.0625,-0.31250000000000006)"/>
<path d="M0 0 C0.66 0.33 1.32 0.66 2 1 C-7.24 10.24 -16.48 19.48 -26 29 C-26.66 28.67 -27.32 28.34 -28 28 C-27.57589844 27.5875 -27.15179688 27.175 -26.71484375 26.75 C-23.5618287 23.64549287 -20.54089879 20.50831571 -17.6875 17.125 C-14.20923861 13.080144 -10.3414688 9.58875064 -6.33203125 6.078125 C-4.13811059 4.12307343 -2.05602941 2.09856795 0 0 Z " fill="#E1ECF9" transform="translate(110,80)"/>
<path d="M0 0 C-1.15173355 2.46800047 -2.04783565 4.04783565 -4 6 C-4.99 5.67 -5.98 5.34 -7 5 C-2.25 0 -2.25 0 0 0 Z " fill="#B4CCEA" transform="translate(561,551)"/>
</svg>
